<svg width="300pt" height="300pt" version="1.0" viewBox="0 0 300 300" xmlns="http://www.w3.org/2000/svg">
 <g transform="translate(0 300) scale(.05 -.05)" fill="#FFFFFF" stroke-width="1.2257">
  <path d="m2842.1 5802.3c-212.04-218.17-267.2-367.7-167.92-454.72 99.279-85.797 102.96-322.35 4.9028-323.58-15.934 0-52.704-7.3541-82.12-14.708-123.79-34.319-237.78 221.85-142.18 317.45 85.797 85.797-198.56 328.48-356.67 306.42-137.27-19.61-246.36-410.6-129.92-465.75 101.73-49.027 148.31-158.11 102.96-240.23-80.894-145.85-229.2-64.96-229.2 126.24 0 153.21-120.12 240.23-334.61 240.23-120.12 0-170.37-55.155-82.12-89.474 20.836-7.354 36.77-34.319 36.77-58.832 0-110.31 80.894-169.14 113.99-82.12 12.257 30.642 19.611 31.867 35.544 6.1284 11.031-17.159 7.354-46.575-8.5796-64.96-20.836-25.739-11.031-45.35 44.124-90.699 56.381-45.35 67.412-66.186 47.801-98.053-31.867-52.704-478.01-294.16-742.75-404.47-258.62-106.63-256.16-102.96-269.65-403.24-72.314-1622.8 894.74-3364.5 2157.2-3885.4l139.73-57.606 154.43 67.412c895.96 397.12 1663.2 1380.1 1964.7 2520 213.27 805.26 224.3 1703.7 20.836 1708.6-26.965 1.2257-562.58 257.39-784.43 376.28-91.925 49.027-90.699 118.89 2.4514 192.43 44.124 35.544 46.575 46.575 18.385 80.894-25.739 30.642-26.965 46.575-4.9027 68.637 20.836 20.836 28.19 18.385 28.19-13.482 0-23.288 14.708-41.673 34.319-41.673 44.124 0 96.828 64.96 77.217 95.602-8.5796 13.482 7.3541 47.801 34.319 74.766 75.991 75.991 61.283 99.279-66.186 99.279-194.88 0-339.51-93.151-329.7-214.49 8.5797-106.63-66.186-226.75-139.73-226.75-150.76 0-161.79 246.36-14.708 307.64 98.053 41.673 98.053 125.02-1.2257 348.09-66.186 149.53-131.15 166.69-280.68 77.217-161.79-96.828-280.68-242.68-197.33-242.68 87.022 0 31.867-291.71-61.283-328.48-189.98-72.314-313.77 183.85-158.11 328.48 109.08 101.73 50.252 267.2-175.27 485.36-129.92 126.24-107.86 128.7-258.62-25.739zm280.68-49.027c189.98-248.81 208.36-313.77 110.31-397.12-90.699-77.217-93.151-226.75-6.1284-322.35 34.319-36.77 49.027-60.058 33.093-50.252-15.934 8.5797-31.867-8.5796-39.221-42.898-9.8053-51.478 0-60.058 71.089-68.637 89.474-11.031 123.79 63.735 39.221 85.797-23.288 6.1283-8.5797 12.257 31.867 14.708 180.17 6.1283 283.13 237.78 165.47 373.83-29.416 34.319-24.513 46.575 44.124 104.18 167.92 142.18 302.74 183.85 343.19 107.86 26.965-51.478 26.965-52.704-11.031-23.288-22.062 19.611-40.447 23.288-40.447 9.8054 0-30.642 73.54-94.376 74.766-63.735 0 11.031 11.031 1.2257 25.739-22.062 13.482-23.288 18.385-53.929 11.031-66.186-8.5797-12.257-3.677-29.416 11.031-37.996 36.77-23.288 30.642-159.34-8.5797-159.34-112.76 0-185.08-226.75-101.73-318.67 111.54-123.79 294.16-3.677 277 181.4-9.8053 106.63 167.92 224.3 313.77 205.91l63.735-7.354-47.801-55.155c-26.965-29.416-53.929-49.027-60.058-41.673-44.124 44.124-189.98-221.85-191.2-348.09 0-77.217 365.25-279.45 929.06-513.55l60.058-25.739-78.443-55.155c-63.735-45.35-77.217-71.089-75.991-144.63l2.4514-90.699 45.35 101.73c102.96 232.88 136.05 136.05 115.21-344.41-63.735-1446.3-766.04-2765.1-1820.1-3415.9-389.76-241.46-441.24-245.13-783.2-49.027-1141.1 652.05-1897.3 2084.9-1899.8 3594.9 0 345.64 1.2257 352.99 46.575 311.32 25.739-23.288 55.155-72.314 64.96-107.86l17.159-66.186 20.836 71.089c18.385 66.186-41.673 158.11-106.63 160.56-69.863 3.677 15.934 60.058 224.3 147.08 133.6 56.381 348.09 163.01 478.01 236.55 129.92 74.766 245.13 128.7 257.39 121.34 23.288-14.708 15.934 36.77-28.19 194.88-33.093 120.12-132.37 235.33-185.08 214.49-23.288-8.5796-30.642-4.9027-20.836 12.257 8.5797 13.482-1.2257 31.867-20.836 39.221-74.766 29.416-39.221 71.089 47.801 57.606 132.37-20.836 313.77-109.08 294.16-142.18-98.053-158.11 128.7-372.6 262.29-251.26 87.022 78.443 18.385 327.25-90.699 327.25-24.513 0-35.544 28.19-35.544 85.797 0 47.801 12.257 85.797 25.739 85.797 14.708 0 19.611 9.8053 12.257 22.062-18.385 30.642 11.031 102.96 35.544 88.248 9.8054-6.1283 33.093 6.1284 50.252 26.965 26.965 30.642 26.965 41.673 1.2257 57.606-89.474 55.155 39.221 47.801 154.43-8.5797 197.33-96.828 226.75-138.5 175.27-247.58-75.991-160.56 19.611-327.25 192.43-333.38 41.673-2.4514 56.381-8.5797 33.093-14.708-84.571-22.062-50.252-96.828 39.221-85.797 71.089 8.5797 80.894 17.159 71.089 68.637-7.354 34.319-23.288 51.478-39.221 42.898-15.934-9.8053-3.677 11.031 26.965 44.124 84.571 93.151 77.217 251.26-15.934 337.06l-72.314 67.412 44.124 95.602c62.509 140.95 240.23 354.22 292.93 354.22 25.739 0 87.022-55.155 143.4-128.7z"/>
  <path d="m2881.3 5768c-31.867-35.544-41.673-57.606-22.062-49.027 20.836 8.5796 56.381 23.288 79.668 30.642 42.898 15.934 61.283 83.345 22.062 83.345-11.031 0-46.575-29.416-79.668-64.96z"/>
  <path d="m2915.6 5656.4c-53.929-66.186-61.283-143.4-19.611-205.91 87.022-133.6 261.07 14.708 182.62 155.66-41.673 74.766-123.79 99.279-163.01 50.252zm115.21-44.124c0-33.093-15.934-49.027-49.027-49.027-33.093 0-49.027 15.934-49.027 49.027 0 33.093 15.934 49.027 49.027 49.027 33.093 0 49.027-15.934 49.027-49.027z"/>
  <path d="m2134.9 5432.1c50.252-36.77 29.416-100.5-25.739-79.668-42.898 15.934-46.575-61.283-4.9027-102.96 22.062-22.062 36.77-20.836 64.96 1.2257 30.642 25.739 34.319 23.288 20.836-12.257-8.5797-23.288-4.9027-42.898 8.5797-42.898 33.093 0 68.637 100.5 52.704 147.08-20.836 60.058-83.345 122.57-123.79 122.57-30.642 0-28.19-6.1284 7.354-33.093z"/>
  <path d="m3730.7 5392.9c-46.575-88.248-46.575-102.96-3.6771-160.56 47.801-67.412 161.79 7.3539 161.79 104.18-1.2256 51.478-6.1284 58.832-23.288 30.642-19.611-29.416-29.416-30.642-55.155-3.6769-25.739 25.739-23.288 37.996 15.934 66.186 46.575 34.319 46.575 35.544-6.1283 35.544-33.093 0-66.186-25.739-89.474-72.314z"/>
  <path d="m2931.5 5168.6c-22.062-40.447-20.836-66.186 2.4514-110.31 37.996-71.089 62.509-73.54 95.602-11.031 36.77 67.412 31.867 79.668-24.513 62.509-42.898-14.708-47.801-8.5797-34.319 46.575 19.611 77.217-1.2257 83.345-39.221 12.257z"/>
  <path d="m2223.1 5028.9c-1.2257-18.385 9.8053-53.929 23.288-79.668 28.19-50.252 98.053-39.221 98.053 15.934 0 50.252-49.027 41.673-51.478-8.5796-1.2256-28.19-13.482-17.159-35.544 30.642-18.385 40.447-34.319 58.832-34.319 41.673z"/>
  <path d="m3703.7 5000.7c7.354-12.257 3.6769-29.416-11.031-37.996-13.482-8.5797-24.513-3.677-24.513 11.031 0 13.482-11.031 25.739-24.513 25.739s-24.513-20.836-24.513-46.575c0-29.416 14.708-45.35 39.221-41.673 60.058 8.5796 113.99 112.76 57.606 112.76-14.708 0-19.611-9.8054-12.257-23.288z"/>
  <path d="m2380 4832.8c-26.965-3.6769-95.602-18.385-153.21-34.319-72.314-18.385-113.99-18.385-131.15-1.2257-39.221 39.221-115.21 8.5797-101.73-41.673 9.8054-36.77-91.925-107.86-149.53-102.96-6.1283 0-52.704-37.996-102.96-85.797-51.478-49.027-248.81-163.01-454.72-262.29l-362.8-175.27v-294.16c-1.2257-251.26 17.159-430.21 87.022-833.45 182.62-1070 924.15-2143.7 1791.9-2597.2l176.5-91.925 205.91 111.54c694.95 378.73 1169.3 958.47 1548 1891.2 196.11 482.91 340.74 1313.9 294.16 1693.9l-15.934 123.79-327.25 154.43c-330.93 155.66-524.59 289.26-528.26 365.25 0 23.288-6.1284 28.19-13.482 11.031-19.611-49.027-183.85 40.447-167.92 91.925 14.708 46.575-74.766 84.571-100.5 42.898-9.8054-14.708-47.801-17.159-91.925-7.354-199.78 45.35-261.07 52.704-261.07 35.544 0-9.8053 46.575-26.965 104.18-37.996l104.18-19.611-147.08-18.385c-80.894-11.031-174.04-33.093-208.36-49.027-33.093-15.934-69.863-26.965-80.894-24.513-12.257 2.4514-12.257-8.5796-2.4514-24.513 12.257-19.611 4.9027-24.513-20.836-14.708-20.836 8.5798-56.381 1.2257-79.668-14.708-62.509-46.575 49.027-36.77 165.47 14.708 51.478 22.062 134.82 46.575 183.85 55.155 74.766 11.031 80.894 8.5797 36.77-11.031-89.474-39.221-64.96-41.673 110.31-13.482 215.72 35.544 359.12-6.1283 490.27-142.18 60.058-63.735 73.54-87.022 37.996-68.637-80.894 40.447-178.95 75.991-178.95 63.735 0-6.1283 52.704-37.996 116.44-71.089 63.735-31.867 142.18-87.022 174.04-121.34 31.867-33.093 72.314-56.381 90.699-49.027 17.159 7.3539 60.058-6.1283 94.376-28.19 33.093-22.062 73.54-33.093 89.474-24.513 72.314 45.35 220.62-183.85 268.42-416.73 15.934-80.894 44.124-182.62 62.509-226.75s23.288-79.668 9.8053-79.668c-40.447 0-118.89 150.76-171.59 326.03-50.252 164.24-264.74 433.89-346.86 433.89-22.062 0-22.062-7.354 0-29.416 46.575-46.575 34.319-80.894-13.482-39.221-85.797 73.54-113.99 71.089-34.319-4.9026 45.35-41.673 75.991-82.12 69.863-89.474-20.836-20.836-175.27 56.381-225.52 112.76-47.801 53.93-210.81 149.53-250.04 147.08-11.031 0 13.482-18.385 53.929-39.221 87.022-46.575 180.17-127.47 210.81-185.08 13.482-24.514-37.996 0-118.89 55.155-112.76 78.443-187.53 106.63-373.83 145.85l-232.88 46.575 219.39-6.1283c120.12-4.9027 197.33 1.2256 171.59 11.031-26.965 9.8054-107.86 20.836-182.62 24.513-131.15 6.1283-129.92 7.354 49.027 22.062l183.85 15.934-198.56 3.677c-116.44 3.677-247.58-9.8054-317.45-30.642l-120.12-36.77 72.314 61.283 73.54 62.509-100.5-49.027c-56.381-26.965-138.5-79.668-183.85-117.66l-83.345-68.637 79.668 101.73c44.124 56.381 134.82 137.27 202.24 180.17 134.82 87.022 166.69 126.24 45.35 56.381s-324.8-264.74-376.28-360.35c-61.283-112.76-63.735-111.54-154.43 33.093-84.571 137.27-290.48 307.64-449.82 371.38-61.283 25.739-85.797 44.124-57.606 44.124 26.965 1.2257 112.76-24.513 189.98-56.381 77.217-31.867 134.82-47.801 127.47-36.77-44.124 69.863 164.24-53.929 230.43-137.27l45.35-58.832 83.345 90.699c56.381 61.283 61.283 71.089 15.934 30.642-36.77-31.867-67.412-46.575-67.412-33.093 0 34.319 181.4 198.56 257.39 232.88 33.093 14.708 52.704 37.996 44.124 51.478-8.5796 14.708-2.4513 17.159 13.482 7.3541 33.093-20.836 175.27 4.9026 175.27 30.642 0 8.5796-68.637 12.257-153.21 7.354-120.12-7.354-144.63-14.708-112.76-35.544 46.575-29.416-138.5-139.73-234.1-139.73-122.57 0-310.09 102.96-262.29 144.63 44.124 37.996-177.72 57.606-354.22 31.867zm269.65-51.478c-4.9026-4.9028 39.221-41.673 100.5-82.12 60.058-39.221 132.37-105.41 161.79-145.85 52.704-73.54 52.704-73.54-64.96 15.934-64.96 49.027-132.37 83.345-151.98 75.991-18.385-7.3541-28.19-3.677-20.836 8.5797 19.611 31.867-122.57 75.991-305.19 94.376-133.6 13.482-147.08 18.385-85.797 33.093 74.766 17.159 383.63 17.159 366.47 0zm-167.92-164.24c94.376-39.221 352.99-268.42 352.99-312.55 0-13.482-30.642 2.4512-67.412 36.77-87.022 79.668-181.4 143.4-213.27 143.4-14.708-1.2257 2.4513-22.062 35.544-49.027 73.54-57.606 66.186-58.832-61.283-13.482-53.929 19.611-169.14 34.319-257.39 33.093l-159.34-3.677 134.82-14.708c100.5-11.031 118.89-18.385 73.54-29.416-53.929-12.257-50.252-14.708 24.513-19.611 63.735-4.9027 30.642-17.159-133.6-51.478-172.82-35.544-251.26-67.412-361.57-143.4-149.53-102.96-181.4-101.73-84.571 3.6769 78.443 83.345 196.11 143.4 359.12 182.62l134.82 31.867-116.44-12.257c-123.79-12.257-329.7-104.18-386.09-171.59-44.124-53.929-220.62-142.18-241.46-121.34-8.5797 8.5797 28.19 55.155 82.12 102.96 53.929 47.801 82.12 78.443 61.283 67.412-19.611-11.031-61.283-41.673-91.925-68.637-30.642-28.19-60.058-44.124-67.412-37.996-23.288 23.288 218.17 241.46 323.58 292.93 57.606 28.19 105.41 55.155 105.41 60.058 0 12.257-106.63-28.19-175.27-64.96-44.124-23.288-46.575-20.836-23.288 23.288 102.96 192.43 463.3 257.39 752.56 136.05zm-1073.7-457.17c-132.37-122.57-218.17-248.81-213.27-317.45 1.2257-17.159 17.159 2.4512 35.544 45.35 50.252 115.21 147.08 180.17 265.97 180.17 214.49-1.2257 208.36-63.735-17.159-171.59-158.11-75.991-208.36-187.53-164.24-364.02 14.708-60.058 20.836-113.99 13.482-121.34-18.385-18.385-104.18 186.3-125.02 300.29l-18.385 95.602-46.575-120.12c-47.801-122.57-105.41-202.24-129.92-178.95-7.354 7.354 2.4513 50.252 22.062 96.828 18.385 45.35 47.801 149.53 63.735 230.43 36.77 177.72 57.606 221.85 154.43 324.8 84.571 89.474 148.31 110.31 75.991 24.513l-46.575-55.155 61.283 51.478c181.4 154.43 240.23 136.05 68.637-20.836zm679.02 90.699c-40.447-18.385-100.5-56.381-134.82-83.345-40.447-33.093-8.5797-23.288 91.925 26.965 268.42 137.27 193.66-9.8053-104.18-202.24-161.79-104.18-158.11-129.92 4.9026-36.77 177.72 102.96 89.474-1.2256-115.21-134.82-107.86-69.863-221.85-165.46-258.62-220.62-82.12-117.66-110.31-106.63-37.996 14.708 66.186 113.99 66.186 113.99-34.319 72.314-100.5-42.898-110.31-25.739-25.739 41.673 34.319 25.739 105.41 111.54 160.56 189.98 127.47 181.4 378.73 370.15 490.27 366.47 20.836 0 3.6771-15.934-36.77-34.319zm658.18-14.708c42.898-29.416 112.76-91.925 156.89-140.95l79.668-88.248 73.54 80.894c235.33 254.94 444.92 268.42 660.63 44.124 95.602-99.279 93.151-102.96-36.77-49.027-128.7 52.704-235.33 28.19-327.25-77.217-99.279-112.76-98.053-140.95 1.2257-40.447 178.95 183.85 495.17 98.053 628.77-171.59 91.925-183.85 7.3539-277-213.27-235.33-133.6 24.513-230.43-3.677-326.03-95.602-99.279-95.602-83.345-34.319 23.288 91.925 87.022 102.96 88.248 105.41 15.934 47.801-185.08-148.31-227.97-323.58-131.15-536.84 58.832-129.92 89.474-122.57 34.319 7.354-55.155 133.6-28.19 196.11 78.443 177.72 49.027-7.354 77.217-3.677 68.637 9.8054-7.3539 13.482 14.708 23.288 50.252 23.288 89.474 0 196.11 60.058 257.39 147.08 205.91 288.03 322.35-227.97 127.47-565.03-58.832-100.5-112.76-213.27-120.12-250.04-17.159-88.248-36.77-84.571-116.44 18.385-35.544 47.801-75.991 85.797-89.474 85.797-13.482 0 9.8053-42.898 52.704-95.602 98.053-122.57 109.08-256.16 25.739-324.8-31.867-24.513-45.35-45.35-31.867-45.35 14.708 0 55.155 35.544 90.699 79.668l66.186 79.668-14.708-84.571c-19.611-105.41-93.151-186.3-193.66-210.81l-78.443-19.611 67.412-9.8053c36.77-4.9027 91.925 7.354 121.34 29.416 78.443 53.929 95.602 47.801 67.412-26.965-39.221-101.73-94.376-128.7-231.65-116.44l-122.57 11.031 80.894-36.77c45.35-20.836 110.31-30.642 150.76-22.062 63.735 12.257 69.863 8.5796 57.606-37.996-37.996-147.08-191.2-158.11-474.33-36.77-359.12 153.21-362.8 216.94-34.319 566.26 246.36 264.74 243.91 251.26 56.381 251.26-35.544 1.2257-104.18-15.934-151.98-35.544-111.54-46.575-214.49-46.575-326.03 0-80.894 34.319-156.89 44.124-259.84 33.093-61.283-6.1283-63.735-2.4513 177.72-262.29 312.55-334.61 306.42-406.92-41.673-549.1-288.03-118.89-343.19-123.79-424.08-42.898-77.217 77.217-62.509 116.44 45.35 116.44 51.478 0 115.21 12.257 140.95 28.19 37.996 23.288 24.513 25.739-75.991 17.159-137.27-12.257-192.43 14.708-231.65 116.44-28.19 73.54-8.5796 82.12 61.284 29.416 53.929-40.447 169.14-51.478 145.85-13.482-8.5796 13.482-34.319 24.513-58.832 24.513-63.735 0-147.08 100.5-164.24 197.33l-14.708 84.571 66.186-79.668c35.544-44.124 77.217-79.668 93.151-79.668s3.677 17.159-26.965 37.996c-78.443 56.381-74.766 212.04 9.8053 322.35 85.797 112.76 57.606 132.37-30.642 20.836-84.571-105.41-96.828-106.63-113.99-18.385-7.354 37.996-61.284 150.76-120.12 251.26-120.12 209.59-142.18 404.47-61.283 556.45 57.606 106.63 104.18 100.5 229.2-30.642 58.832-61.283 113.99-109.08 125.02-107.86 98.053 15.934 160.56-3.6771 115.21-36.77-41.673-31.867-35.544-31.867 57.606-7.3539 153.21 40.447 192.43-77.217 83.345-246.36-19.611-30.642-24.513-55.155-11.031-55.155 39.221 0 131.15 240.23 133.6 343.19 1.2257 110.31-58.832 221.85-163.01 297.84l-74.766 56.381 78.443-96.828c95.602-115.21 87.022-139.73-18.385-51.478-83.345 69.863-134.82 80.894-154.43 33.093-6.1283-17.159-13.482-7.354-13.482 20.836-2.4514 49.027-7.3541 50.252-117.66 22.062-313.77-79.668-360.35 207.14-66.186 411.82 160.56 111.54 475.56 104.18 475.56-11.031 0-11.031 13.482-20.836 29.416-20.836s-2.4513 33.093-41.673 73.54c-88.248 91.925-196.11 113.99-317.45 63.735-127.47-53.929-131.15-50.252-49.027 37.996 165.46 175.27 357.89 219.39 509.88 115.21zm1239.1-7.354c66.186-33.093 170.37-121.34 237.78-198.56 66.186-77.217 166.69-188.75 224.3-250.04 126.24-134.82 127.47-138.5 15.934-91.925-118.89 49.027-118.89 50.252-47.801-55.155 64.96-94.376 75.991-128.7 44.124-128.7-11.031 0-39.221 35.544-62.509 79.668-24.513 44.124-79.668 105.41-122.57 136.05s-142.18 100.5-219.39 154.43c-164.24 113.99-188.75 169.14-36.77 82.12 164.24-94.376 169.14-69.863 6.1283 34.319-290.48 187.53-373.83 339.51-111.54 202.24 182.62-94.376 196.11-79.668 19.611 20.836-154.43 89.474-115.21 99.279 52.704 14.708zm637.35-201.01c120.12-84.571 156.89-291.71 84.571-480.46-63.735-164.24-83.345-164.24-66.186 0 20.836 207.14-12.257 278.23-165.46 350.54-148.31 69.863-193.66 115.21-143.4 147.08 57.606 36.77 227.97 26.965 290.48-17.159zm-2714.9-245.13c-13.482-24.513-47.801-104.18-77.217-176.5-57.606-144.63-49.027-204.69 11.031-73.54l37.996 82.12-14.708-96.828c-18.385-126.24-51.478-188.75-198.56-371.38-64.96-82.12-138.5-176.5-161.79-208.36-40.447-57.606-40.447-56.381-6.1283 33.093 19.611 50.252 30.642 91.925 24.513 91.925-15.934 0-109.08-191.2-171.59-354.22-39.221-101.73-57.606-128.7-58.832-87.022-2.4512 106.63 89.474 383.63 188.75 573.61 53.929 101.73 87.022 178.95 75.991 171.59-12.257-7.354-37.996-46.575-60.058-87.022-56.381-109.08-72.314-63.735-23.288 64.96 53.929 140.95 205.91 334.61 337.06 430.21 107.86 77.217 136.05 79.668 96.828 7.354zm2352.1-113.99c133.6-133.6 225.52-284.35 256.16-421.63 13.482-60.058 0-49.027-71.089 61.283-49.027 74.766-88.248 125.02-88.248 113.99-1.2257-11.031 20.836-51.478 47.801-89.474 112.76-158.11 291.71-656.96 264.74-736.63-6.1283-18.385-36.77 39.221-68.637 125.02-56.381 150.76-209.59 440.01-234.1 440.01-6.1283 0 23.288-63.735 64.96-140.95 82.12-153.21 57.606-129.92-149.53 138.5-133.6 174.04-191.2 288.03-193.66 382.41 0 35.544 12.257 25.739 46.575-36.77 67.412-122.57 60.058-79.668-24.513 138.5-40.447 105.41-73.54 194.88-73.54 198.56 0 25.739 109.08-58.832 223.07-172.82zm-3064.2-204.69c-14.708-51.478-25.739-143.4-25.739-204.69l1.2256-110.31 35.544 83.345c46.575 106.63 69.863 84.571 39.221-37.996-13.482-51.478-30.642-149.53-37.996-216.94l-13.482-122.57 51.478 165.47c29.416 90.699 63.735 165.47 75.991 165.47 13.482 0 15.934-19.611 7.354-42.898-36.77-90.699-62.509-322.35-63.735-557.68-1.2257-312.55-44.124-256.16-137.27 180.17-67.412 312.55-57.606 574.84 29.416 741.53 51.478 98.054 71.089 75.991 37.996-42.898zm3650-56.381c44.124-158.11 28.19-486.59-35.544-741.53-89.474-361.57-101.73-361.57-118.89-3.677-7.3541 172.82-26.965 357.89-41.673 409.37-25.739 85.797-18.385 140.95 13.482 109.08 7.354-7.354 29.416-83.345 49.027-169.14l35.544-156.89-12.257 159.34c-6.1283 88.248-17.159 192.43-24.513 232.88-11.031 67.412-8.5797 64.96 37.996-24.513l50.252-98.053-12.257 159.34c-7.354 88.248-19.611 192.43-28.19 232.88-20.836 105.41 52.704 13.482 87.022-109.08zm-2412.1-3.677c85.797-95.602-79.668-118.89-180.17-25.739l-67.412 62.509 61.283 14.708c80.894 20.836 134.82 4.9026 186.3-51.478zm1333.5 25.739c0-66.186-210.81-138.5-261.07-89.474-20.836 22.062 40.447 91.925 98.053 113.99 56.381 20.836 163.01 4.9026 163.01-24.513zm-2010.1-563.81c-42.898-113.99-105.41-284.35-139.73-378.73-53.929-148.31-63.735-213.27-64.96-471.88-1.2257-165.47-4.9026-300.29-8.5797-300.29-19.611 0-90.699 308.87-105.41 465.75l-17.159 183.85-4.9026-159.34c-4.9028-242.68-50.252-131.15-51.478 127.47 0 216.94 50.252 414.28 134.82 523.36 31.867 42.898 31.867 37.996 0-42.898-20.836-50.252-36.77-105.41-36.77-122.57 1.2257-17.159 28.19 31.867 60.058 111.54 52.704 128.7 172.82 334.61 194.88 334.61 3.6771 0-29.416-90.699-73.54-202.24-125.02-306.42-99.279-308.87 45.35-4.9026 151.98 318.67 193.66 279.45 67.412-63.735zm2499.1 87.022c166.69-341.96 199.78-334.61 46.575 9.8053-111.54 248.81-61.283 226.75 75.991-34.319 42.898-80.894 69.863-118.89 61.283-85.797-33.093 123.79 41.673 8.5797 101.73-158.11 42.898-120.12 57.606-209.59 56.381-339.51-3.677-252.49-40.447-350.54-47.801-127.47l-4.9027 171.59-20.836-189.98c-20.836-196.11-90.699-484.14-117.66-484.14-7.3541 0-14.708 151.98-15.934 337.06l-1.2257 337.06-112.76 281.9c-62.509 155.66-120.12 312.55-128.7 349.32-7.3541 36.77-19.611 95.602-25.739 128.7-23.288 109.08 6.1284 66.186 133.6-196.11zm-2401.1-148.31c-36.77-166.69-69.863-620.19-51.478-691.28 14.708-51.478 22.062-25.739 33.093 116.44 24.514 312.55 63.735 346.86 68.638 61.283 3.6769-215.72 7.3539-230.43 24.513-126.24 23.288 139.73 47.801 177.72 47.801 72.314 0-399.57 90.699-973.18 194.88-1220.8l50.252-122.57-51.478 61.283c-79.668 93.151-207.14 361.57-267.2 560.13-72.314 235.33-82.12 212.04-26.965-58.832 57.606-280.68 49.027-284.35-69.863-33.093-183.85 384.86-223.07 743.98-122.57 1119 57.606 212.04 85.797 264.74 64.96 116.44-12.257-80.894-7.3539-73.54 30.642 44.124 79.668 247.58 118.89 301.51 74.766 101.73zm2315.3-72.314c31.867-99.279 36.77-106.63 28.19-36.77l-11.031 85.797 36.77-85.797c128.7-292.93 133.6-739.08 9.8053-1078.6-123.79-344.41-251.26-509.88-160.56-210.81 63.735 208.36 44.124 300.29-20.836 100.5-62.509-189.98-191.2-459.63-263.52-552.78-45.35-56.381-44.124-51.478 3.6769 74.766 95.602 247.58 147.08 539.29 163.01 913.12 14.708 366.47 40.447 457.17 68.637 245.13 28.19-207.14 37.996-171.59 25.739 99.279-6.1283 144.63-1.2257 257.39 9.8053 250.04 24.513-14.708 72.314-284.35 83.345-465.75 3.677-67.412 8.5797-15.934 11.031 115.21 4.9026 214.49-25.739 544.2-60.058 669.21-29.416 105.41 37.996-3.677 75.991-122.57zm-1360.5-243.91c96.828-50.252 131.15-143.4 61.283-170.37-22.062-7.354-35.544-1.2257-33.093 15.934 8.5797 69.863-6.1284 95.602-82.12 140.95-91.925 56.381-50.252 66.186 53.929 13.482zm454.72 11.031c-8.5796-13.482-29.416-24.513-46.575-24.513-50.252 0-115.21-87.022-98.053-131.15 11.031-30.642 4.9028-36.77-24.513-25.739-71.089 26.965-33.093 120.12 71.089 177.72 61.283 34.319 117.66 35.544 98.053 3.6769zm-1100.6-870.22c41.673-170.37 178.95-512.33 198.56-493.94 4.9028 6.1284-12.257 77.217-40.447 159.34-93.151 277-56.381 297.84 56.381 31.867 98.053-231.65 246.36-474.33 422.86-691.28 105.41-128.7 140.95-187.53 106.63-175.27-110.31 41.673-367.7 257.39-474.33 399.57-62.509 82.12-112.76 137.27-112.76 122.57 0-41.673 118.89-225.52 203.46-315 41.673-44.124 63.735-79.668 49.027-79.668-15.934 0-88.248 67.412-163.01 149.53-214.49 236.55-337.06 607.93-332.16 1002.6 2.4514 223.07 3.677 221.85 85.797-110.31zm1718.4 55.155c-29.416-489.04-189.98-875.13-441.24-1052.8-74.766-53.929-73.54-50.252 23.288 66.186 55.155 67.412 125.02 172.82 154.43 232.88l52.704 110.31-53.929-73.54c-104.18-140.95-405.7-424.08-507.43-475.56-126.24-63.735-131.15-39.221-15.934 72.314 131.15 127.47 313.77 404.47 451.05 686.37 68.638 138.5 129.92 257.39 136.05 264.74 23.288 22.062-18.385-153.21-63.735-277-33.093-88.248-35.544-111.54-11.031-85.797 67.412 69.863 234.1 557.68 234.1 687.6 0 58.832 17.159 95.602 44.124 95.602 6.1283 0 4.9027-112.76-2.4513-251.26zm-571.16 105.41c102.96-41.673 209.59-74.766 236.55-74.766 69.863 0 62.509-113.99-14.708-226.75-66.186-99.279-93.151-117.66-67.412-49.027 9.8054 23.288-39.221-17.159-107.86-91.925-143.4-154.43-183.85-153.21-94.376 2.4514 69.863 122.57 84.571 189.98 19.61 93.151-85.797-128.7-308.87-352.99-318.67-321.12-6.1283 17.159-57.606 74.766-115.21 128.7-56.381 53.929-117.66 125.02-136.05 158.11-18.385 34.319-42.898 61.283-55.155 61.283-12.257 0 6.1284-51.478 41.673-113.99 89.474-160.56 57.606-163.01-89.474-7.354-69.863 73.54-118.89 112.76-109.08 87.022 29.416-78.443-46.575 0-91.925 94.376-60.058 125.02-51.478 185.08 23.288 185.08 35.544 0 87.022 13.482 116.44 29.416 286.81 153.21 463.3 164.24 762.36 45.35z"/>
  <path d="m3061.5 292.91c-44.124-26.965-79.668-60.058-79.668-73.54 0-39.221 22.062-29.416 105.41 49.027 91.925 85.797 84.571 91.925-25.739 24.513z"/>
 </g>
</svg>
