<?xml version="1.0" encoding="UTF-8" standalone="no"?>
<svg
   xmlns:dc="http://purl.org/dc/elements/1.1/"
   xmlns:cc="http://creativecommons.org/ns#"
   xmlns:rdf="http://www.w3.org/1999/02/22-rdf-syntax-ns#"
   xmlns:svg="http://www.w3.org/2000/svg"
   xmlns="http://www.w3.org/2000/svg"
   xmlns:sodipodi="http://sodipodi.sourceforge.net/DTD/sodipodi-0.dtd"
   xmlns:inkscape="http://www.inkscape.org/namespaces/inkscape"
   version="1.0"
   width="300.000000pt"
   height="300.000000pt"
   viewBox="0 0 300.000000 300.000000"
   preserveAspectRatio="xMidYMid meet"
   id="svg46"
   sodipodi:docname="lion_logo_only_inv.svg"
   inkscape:version="1.0.2-2 (e86c870879, 2021-01-15)">
  <defs
     id="defs50" />
  <sodipodi:namedview
     pagecolor="#ffffff"
     bordercolor="#666666"
     borderopacity="1"
     objecttolerance="10"
     gridtolerance="10"
     guidetolerance="10"
     inkscape:pageopacity="0"
     inkscape:pageshadow="2"
     inkscape:window-width="1920"
     inkscape:window-height="1057"
     id="namedview48"
     showgrid="false"
     inkscape:zoom="1.5026019"
     inkscape:cx="204.99519"
     inkscape:cy="233.76042"
     inkscape:window-x="-8"
     inkscape:window-y="-8"
     inkscape:window-maximized="1"
     inkscape:current-layer="g44" />
  <metadata
     id="metadata2">
Created by potrace 1.10, written by Peter Selinger 2001-2011
<rdf:RDF>
  <cc:Work
     rdf:about="">
    <dc:format>image/svg+xml</dc:format>
    <dc:type
       rdf:resource="http://purl.org/dc/dcmitype/StillImage" />
    <dc:title></dc:title>
  </cc:Work>
</rdf:RDF>
</metadata>
  <g
     transform="translate(0.000000,300.000000) scale(0.050000,-0.050000)"
     fill="#ffffff"
     stroke="none"
     id="g44"
     style="fill:#000000;fill-opacity:1">
    <path
       d="m 2842.0701,5802.2828 c -212.0404,-218.1687 -267.1955,-367.7001 -167.9165,-454.7225 99.2792,-85.7966 102.9561,-322.3504 4.9028,-323.576 -15.9337,0 -52.7037,-7.3541 -82.1197,-14.7081 -123.7924,-34.3186 -237.7794,221.8458 -142.1774,317.4478 85.7967,85.7967 -198.5581,328.4788 -356.6691,306.4167 -137.2747,-19.6105 -246.3591,-410.5984 -129.9208,-465.7534 101.7304,-49.0267 148.3058,-158.1111 102.9561,-240.2308 -80.894,-145.8543 -229.1997,-64.9603 -229.1997,126.2437 0,153.2085 -120.1154,240.2308 -334.6072,240.2308 -120.1154,0 -170.3678,-55.155 -82.1197,-89.4737 20.8364,-7.354 36.77,-34.3186 36.77,-58.8321 0,-110.31 80.894,-169.142 113.987,-82.1196 12.2567,30.6417 19.6107,31.8673 35.5444,6.1284 11.031,-17.1594 7.354,-46.5754 -8.5796,-64.9604 -20.8364,-25.7391 -11.0311,-45.3497 44.124,-90.6994 56.3807,-45.3497 67.4116,-66.186 47.801,-98.0534 -31.8674,-52.7036 -478.0103,-294.1601 -742.75433,-404.4701 C 693.47562,4304.5177 695.92695,4308.1946 682.44462,4007.9062 610.13025,2385.1229 1577.1816,643.44998 2839.6187,122.54142 l 139.7261,-57.606349 154.4341,67.411679 c 895.9626,397.11615 1663.2302,1380.10115 1964.7443,2519.97165 213.2661,805.2632 224.2971,1703.6773 20.8364,1708.5799 -26.9647,1.2257 -562.5812,257.3902 -784.427,376.2799 -91.925,49.0266 -90.6993,118.8897 2.4514,192.4297 44.124,35.5443 46.5753,46.5753 18.385,80.894 -25.739,30.6417 -26.9647,46.5754 -4.9027,68.6374 20.8363,20.8363 28.1903,18.385 28.1903,-13.4824 0,-23.2876 14.7081,-41.6726 34.3188,-41.6726 44.124,0 96.8276,64.9603 77.2169,95.602 -8.5796,13.4823 7.3541,47.801 34.3188,74.7657 75.9913,75.9913 61.2833,99.279 -66.1861,99.279 -194.881,0 -339.5097,-93.1507 -329.7044,-214.4917 8.5797,-106.6331 -66.186,-226.7485 -139.7261,-226.7485 -150.7571,0 -161.7881,246.3591 -14.708,307.6425 98.0534,41.6726 98.0534,125.018 -1.2257,348.0894 -66.1859,149.5315 -131.1463,166.6908 -280.6777,77.2171 -161.7881,-96.8277 -280.6778,-242.6821 -197.3325,-242.6821 87.0224,0 31.8674,-291.7087 -61.2833,-328.4788 -189.9784,-72.3144 -313.7708,183.8501 -158.1111,328.4788 109.0844,101.7304 50.2524,267.1954 -175.2704,485.3641 -129.9207,126.2438 -107.8586,128.6951 -258.6157,-25.739 z m 280.6778,-49.0267 c 189.9783,-248.8104 208.3634,-313.7707 110.31,-397.116 -90.6993,-77.2171 -93.1507,-226.7485 -6.1284,-322.3505 34.3188,-36.7701 49.0267,-60.0577 33.0931,-50.2524 -15.9337,8.5797 -31.8674,-8.5796 -39.2214,-42.8983 -9.8053,-51.4781 0,-60.0577 71.0887,-68.6374 89.4738,-11.031 123.7924,63.7347 39.2214,85.7967 -23.2877,6.1283 -8.5797,12.2566 31.8673,14.708 180.1731,6.1283 283.1291,237.7794 165.4651,373.8285 -29.416,34.3187 -24.5134,46.5754 44.124,104.1817 167.9164,142.1774 302.7398,183.85 343.1868,107.8587 26.9647,-51.478 26.9647,-52.7037 -11.031,-23.2877 -22.0621,19.6107 -40.4471,23.2877 -40.4471,9.8054 0,-30.6418 73.5401,-94.3764 74.7657,-63.7347 0,11.031 11.0311,1.2257 25.739,-22.0621 13.4824,-23.2876 18.385,-53.9293 11.0311,-66.1859 -8.5797,-12.2567 -3.677,-29.416 11.031,-37.9957 36.77,-23.2877 30.6417,-159.3368 -8.5797,-159.3368 -112.7614,0 -185.0757,-226.7483 -101.7304,-318.6734 111.5358,-123.7924 294.1601,-3.677 277.0008,181.3987 -9.8053,106.633 167.9164,224.2972 313.7708,205.9121 l 63.7347,-7.354 -47.8011,-55.1551 c -26.9646,-29.416 -53.9293,-49.0266 -60.0576,-41.6726 -44.1241,44.124 -189.9785,-221.8457 -191.2041,-348.0894 0,-77.2171 365.2488,-279.4522 929.0557,-513.5546 l 60.0577,-25.739 -78.4427,-55.155 c -63.7347,-45.3497 -77.2171,-71.0887 -75.9914,-144.6287 l 2.4514,-90.6994 45.3497,101.7304 c 102.956,232.8767 136.049,136.049 115.2126,-344.4125 C 5165.9349,2293.1979 4463.6277,974.38009 3409.554,323.55079 3019.7918,82.094406 2968.3137,78.417405 2626.3527,274.52417 1485.2565,926.57905 729.01996,2359.384 726.56863,3869.4058 c 0,345.6381 1.22567,352.9922 46.57535,311.3195 25.73902,-23.2877 55.15503,-72.3144 64.96036,-107.8587 l 17.15933,-66.1861 20.83631,71.0887 c 18.385,66.186 -41.67264,158.1111 -106.633,160.5624 -69.86303,3.677 15.93367,60.0577 224.29712,147.0801 133.5977,56.3807 348.0894,163.0137 478.0102,236.5537 129.9207,74.7657 245.1333,128.695 257.3901,121.3411 23.2876,-14.708 15.9336,36.77 -28.1904,194.8811 -33.093,120.1153 -132.3721,235.328 -185.0757,214.4917 -23.2877,-8.5796 -30.6418,-4.9027 -20.8364,12.2566 8.5797,13.4824 -1.2257,31.8674 -20.8363,39.2214 -74.7657,29.416 -39.2213,71.0887 47.801,57.6064 132.372,-20.8364 313.7707,-109.0844 294.1601,-142.1774 -98.0534,-158.1111 128.695,-372.6028 262.2928,-251.2618 87.0224,78.4427 18.385,327.2531 -90.6994,327.2531 -24.5134,0 -35.5443,28.1904 -35.5443,85.7968 0,47.8009 12.2566,85.7966 25.739,85.7966 14.7079,0 19.6107,9.8053 12.2567,22.062 -18.385,30.6418 11.0309,102.9561 35.5443,88.248 9.8054,-6.1283 33.093,6.1284 50.2523,26.9647 26.9647,30.6417 26.9647,41.6727 1.2257,57.6064 -89.4737,55.155 39.2214,47.801 154.434,-8.5797 197.3325,-96.8276 226.7485,-138.5004 175.2704,-247.5847 -75.9913,-160.5625 19.6107,-327.2532 192.4297,-333.3815 41.6728,-2.4514 56.3807,-8.5797 33.0931,-14.708 -84.571,-22.062 -50.2524,-96.8277 39.2214,-85.7967 71.0887,8.5797 80.894,17.1593 71.0887,68.6374 -7.354,34.3187 -23.2878,51.478 -39.2214,42.8983 -15.9337,-9.8053 -3.677,11.0311 26.9646,44.124 84.5711,93.1507 77.2171,251.2618 -15.9336,337.0585 l -72.3143,67.4117 44.124,95.602 c 62.509,140.9518 240.2307,354.2179 292.9344,354.2179 25.739,0 87.0224,-55.1552 143.4031,-128.6952 z"
       id="path4"
       style="fill:#000000;fill-opacity:1;stroke-width:1.22567" />
    <path
       d="m 2881.2914,5767.9642 c -31.8674,-35.5443 -41.6727,-57.6064 -22.062,-49.0267 20.8364,8.5796 56.3807,23.2877 79.6684,30.6417 42.8983,15.9336 61.2833,83.3454 22.062,83.3454 -11.0311,0 -46.5754,-29.4161 -79.6684,-64.9604 z"
       id="path6"
       style="fill:#000000;fill-opacity:1;stroke-width:1.22567" />
    <path
       d="m 2915.6101,5656.4285 c -53.9293,-66.1861 -61.2833,-143.403 -19.6107,-205.9121 87.0224,-133.5977 261.0671,14.708 182.6244,155.6597 -41.6726,74.7657 -123.7923,99.2791 -163.0137,50.2524 z m 115.2128,-44.124 c 0,-33.0931 -15.9338,-49.0267 -49.0268,-49.0267 -33.0929,0 -49.0267,15.9336 -49.0267,49.0267 0,33.093 15.9338,49.0266 49.0267,49.0266 33.093,0 49.0268,-15.9336 49.0268,-49.0266 z"
       id="path8"
       style="fill:#000000;fill-opacity:1;stroke-width:1.22567" />
    <path
       d="m 2134.8602,5432.1314 c 50.2523,-36.7701 29.416,-100.5047 -25.739,-79.6684 -42.8984,15.9337 -46.5754,-61.2833 -4.9027,-102.956 22.062,-22.062 36.77,-20.8364 64.9603,1.2257 30.6417,25.7389 34.3187,23.2876 20.8364,-12.2567 -8.5797,-23.2877 -4.9027,-42.8984 8.5797,-42.8984 33.0929,0 68.6372,100.5047 52.7036,147.0801 -20.8364,60.0576 -83.3454,122.5667 -123.7923,122.5667 -30.6417,0 -28.1904,-6.1284 7.354,-33.093 z"
       id="path10"
       style="fill:#000000;fill-opacity:1;stroke-width:1.22567" />
    <path
       d="m 3730.6788,5392.9101 c -46.5754,-88.2481 -46.5754,-102.9561 -3.6771,-160.5624 47.8011,-67.4118 161.7881,7.3539 161.7881,104.1817 -1.2256,51.478 -6.1284,58.8319 -23.2877,30.6416 -19.6107,-29.4159 -29.416,-30.6416 -55.155,-3.6769 -25.739,25.7389 -23.2876,37.9957 15.9336,66.186 46.5754,34.3187 46.5754,35.5443 -6.1283,35.5443 -33.0929,0 -66.186,-25.739 -89.4736,-72.3143 z"
       id="path12"
       style="fill:#000000;fill-opacity:1;stroke-width:1.22567" />
    <path
       d="m 2931.5437,5168.613 c -22.0619,-40.4471 -20.8362,-66.1861 2.4514,-110.3101 37.9957,-71.0886 62.509,-73.54 95.6021,-11.031 36.77,67.4117 31.8673,79.6683 -24.5134,62.509 -42.8984,-14.708 -47.801,-8.5797 -34.3187,46.5754 19.6107,77.217 -1.2257,83.3453 -39.2214,12.2567 z"
       id="path14"
       style="fill:#000000;fill-opacity:1;stroke-width:1.22567" />
    <path
       d="m 2223.1082,5028.8869 c -1.2257,-18.385 9.8053,-53.9293 23.2877,-79.6683 28.1903,-50.2524 98.0533,-39.2214 98.0533,15.9336 0,50.2524 -49.0267,41.6727 -51.478,-8.5796 -1.2256,-28.1904 -13.4823,-17.1594 -35.5443,30.6417 -18.385,40.4469 -34.3187,58.8319 -34.3187,41.6726 z"
       id="path16"
       style="fill:#000000;fill-opacity:1;stroke-width:1.22567" />
    <path
       d="m 3703.7141,5000.6966 c 7.354,-12.2568 3.6769,-29.4161 -11.031,-37.9957 -13.4824,-8.5797 -24.5133,-3.677 -24.5133,11.031 0,13.4824 -11.0311,25.739 -24.5134,25.739 -13.4823,0 -24.5133,-20.8364 -24.5133,-46.5754 0,-29.416 14.7079,-45.3497 39.2213,-41.6726 60.0577,8.5796 113.987,112.7614 57.6063,112.7614 -14.708,0 -19.6107,-9.8054 -12.2566,-23.2877 z"
       id="path18"
       style="fill:#000000;fill-opacity:1;stroke-width:1.22567" />
    <path
       d="m 2379.9935,4832.7801 c -26.9646,-3.6769 -95.6019,-18.385 -153.2083,-34.3186 -72.3143,-18.385 -113.9871,-18.385 -131.1464,-1.2257 -39.2214,39.2214 -115.2127,8.5797 -101.7304,-41.6726 9.8054,-36.77 -91.925,-107.8588 -149.5314,-102.9561 -6.1283,0 -52.7036,-37.9957 -102.9559,-85.7967 -51.4781,-49.0267 -248.8105,-163.0137 -454.7226,-262.2927 L 923.90102,4129.2473 V 3835.0872 C 922.67533,3583.8254 941.06034,3404.878 1010.9234,3001.6335 1193.5478,1931.6261 1935.0765,857.94165 2802.8487,404.4449 l 176.4961,-91.92503 205.9121,111.53572 c 694.9533,378.73104 1169.2864,958.47171 1548.0175,1891.20431 196.1068,482.9128 340.7355,1313.9152 294.1601,1693.872 l -15.9336,123.7923 -327.2532,154.434 c -330.9301,155.6599 -524.5855,289.2575 -528.2624,365.2489 0,23.2876 -6.1284,28.1904 -13.4824,11.031 -19.6107,-49.0267 -183.8501,40.447 -167.9164,91.9251 14.708,46.5753 -74.7657,84.571 -100.5047,42.8983 -9.8054,-14.708 -47.8011,-17.1593 -91.9251,-7.354 -199.7837,45.3497 -261.0671,52.7037 -261.0671,35.5443 0,-9.8053 46.5754,-26.9646 104.1818,-37.9957 l 104.1817,-19.6106 -147.0801,-18.3851 c -80.894,-11.031 -174.0447,-33.0929 -208.3634,-49.0266 -33.093,-15.9337 -69.863,-26.9647 -80.894,-24.5134 -12.2566,2.4514 -12.2566,-8.5796 -2.4514,-24.5133 12.2567,-19.6107 4.9027,-24.5133 -20.8363,-14.7081 -20.8363,8.5798 -56.3807,1.2257 -79.6684,-14.7079 -62.509,-46.5754 49.0267,-36.77 165.4651,14.7079 51.478,22.0621 134.8234,46.5754 183.85,55.1551 74.7657,11.031 80.8941,8.5797 36.7701,-11.031 -89.4737,-39.2213 -64.9603,-41.6727 110.3101,-13.4823 215.7173,35.5443 359.1204,-6.1283 490.2667,-142.1774 60.0578,-63.7348 73.5401,-87.0224 37.9957,-68.6374 -80.894,40.4471 -178.9473,75.9914 -178.9473,63.7347 0,-6.1283 52.7037,-37.9957 116.4383,-71.0887 63.7347,-31.8673 142.1775,-87.0224 174.0447,-121.341 31.8674,-33.093 72.3144,-56.3807 90.6994,-49.0267 17.1593,7.3539 60.0577,-6.1283 94.3764,-28.1904 33.093,-22.0619 73.54,-33.093 89.4737,-24.5133 72.3144,45.3497 220.62,-183.8501 268.4211,-416.7268 15.9337,-80.894 44.124,-182.6244 62.509,-226.7484 18.385,-44.124 23.2877,-79.6684 9.8053,-79.6684 -40.4469,0 -118.8897,150.7571 -171.5933,326.0275 -50.2524,164.2393 -264.7441,433.8861 -346.8638,433.8861 -22.062,0 -22.062,-7.354 0,-29.416 46.5754,-46.5754 34.3187,-80.894 -13.4824,-39.2214 -85.7967,73.54 -113.9871,71.0888 -34.3186,-4.9026 45.3496,-41.6727 75.9914,-82.1197 69.8629,-89.4737 -20.8362,-20.8363 -175.2704,56.3807 -225.5226,112.7613 -47.8011,53.9295 -210.8148,149.5314 -250.0361,147.0801 -11.0311,0 13.4822,-18.385 53.9293,-39.2213 87.0224,-46.5754 180.173,-127.4694 210.8147,-185.0757 13.4824,-24.5135 -37.9957,0 -118.8897,55.155 -112.7614,78.4426 -187.5271,106.633 -373.8284,145.8543 l -232.8768,46.5754 219.3944,-6.1283 c 120.1154,-4.9027 197.3325,1.2256 171.5934,11.0309 -26.9647,9.8054 -107.8587,20.8364 -182.6244,24.5134 -131.1464,6.1283 -129.9207,7.354 49.0267,22.062 l 183.8501,15.9337 -198.5582,3.677 c -116.4383,3.677 -247.5847,-9.8054 -317.4477,-30.6416 l -120.1154,-36.7701 72.3144,61.2834 73.54,62.509 -100.5047,-49.0268 c -56.3807,-26.9646 -138.5004,-79.6683 -183.8501,-117.664 l -83.3453,-68.6373 79.6683,101.7304 c 44.1241,56.3807 134.8234,137.2747 202.2351,180.173 134.8234,87.0224 166.6907,126.2437 45.3497,56.3807 -121.341,-69.863 -324.8018,-264.744 -376.2798,-360.3461 -61.2834,-112.7614 -63.7347,-111.5357 -154.4341,33.0929 -84.571,137.2749 -290.483,307.6425 -449.8198,371.3772 -61.2833,25.739 -85.7967,44.124 -57.6064,44.124 26.9647,1.2257 112.7614,-24.5133 189.9785,-56.3806 77.217,-31.8674 134.8233,-47.801 127.4694,-36.77 -44.1241,69.863 164.2393,-53.9294 230.4254,-137.2748 l 45.3497,-58.832 83.3453,90.6994 c 56.3807,61.2833 61.2833,71.0886 15.9337,30.6417 -36.77,-31.8674 -67.4118,-46.5754 -67.4118,-33.0931 0,34.3187 181.3988,198.5582 257.3901,232.8768 33.0931,14.708 52.7038,37.9957 44.1241,51.478 -8.5796,14.708 -2.4513,17.1593 13.4823,7.3541 33.0931,-20.8364 175.2704,4.9026 175.2704,30.6416 0,8.5796 -68.6373,12.2567 -153.2083,7.354 -120.1154,-7.354 -144.6288,-14.708 -112.7614,-35.5444 46.5753,-29.416 -138.5004,-139.726 -234.1025,-139.726 -122.5666,0 -310.0937,102.956 -262.2927,144.6287 44.124,37.9957 -177.7218,57.6064 -354.2179,31.8673 z m 269.6468,-51.4779 c -4.9026,-4.9028 39.2214,-41.6728 100.5047,-82.1197 60.0578,-39.2214 132.3721,-105.4074 161.7882,-145.8544 52.7036,-73.54 52.7036,-73.54 -64.9604,15.9336 -64.9604,49.0268 -132.3721,83.3454 -151.9828,75.9914 -18.385,-7.3541 -28.1903,-3.677 -20.8364,8.5797 19.6107,31.8673 -122.5666,75.9913 -305.1911,94.3763 -133.5976,13.4824 -147.08,18.385 -85.7966,33.0931 74.7657,17.1593 383.6338,17.1593 366.4744,0 z m -167.9164,-164.2394 c 94.3764,-39.2214 352.9922,-268.4211 352.9922,-312.5451 0,-13.4824 -30.6417,2.4512 -67.4117,36.77 -87.0223,79.6683 -181.3987,143.403 -213.2661,143.403 -14.708,-1.2257 2.4513,-22.0621 35.5444,-49.0267 73.54,-57.6063 66.1859,-58.832 -61.2834,-13.4823 -53.9294,19.6107 -169.142,34.3186 -257.3901,33.093 l -159.3368,-3.677 134.8235,-14.708 c 100.5047,-11.0311 118.8897,-18.385 73.54,-29.4161 -53.9293,-12.2566 -50.2524,-14.7079 24.5133,-19.6106 63.7347,-4.9027 30.6417,-17.1594 -133.5976,-51.478 -172.8192,-35.5444 -251.2618,-67.4118 -361.5719,-143.403 -149.5314,-102.9561 -181.3987,-101.7304 -84.571,3.6769 78.4426,83.3454 196.1068,143.4031 359.1204,182.6244 l 134.8234,31.8674 -116.4383,-12.2567 c -123.7925,-12.2566 -329.7045,-104.1817 -386.0852,-171.5934 -44.124,-53.9293 -220.6201,-142.1774 -241.4564,-121.3411 -8.5797,8.5797 28.1903,55.1551 82.1197,102.9561 53.9293,47.801 82.1197,78.4426 61.2834,67.4117 -19.6107,-11.031 -61.2834,-41.6727 -91.925,-68.6374 -30.6418,-28.1903 -60.0578,-44.124 -67.4118,-37.9957 -23.2877,23.2878 218.1687,241.4565 323.5762,292.9344 57.6063,28.1904 105.4073,55.1551 105.4073,60.0578 0,12.2567 -106.633,-28.1904 -175.2704,-64.9604 -44.124,-23.2876 -46.5754,-20.8363 -23.2876,23.2877 102.956,192.4298 463.3022,257.3901 752.5595,136.0491 z M 1408.0396,4159.8889 c -132.3721,-122.5667 -218.1688,-248.8104 -213.2661,-317.4477 1.2257,-17.1594 17.1593,2.4512 35.5443,45.3496 50.2524,115.2127 147.0801,180.1731 265.9698,180.1731 214.4917,-1.2257 208.3634,-63.7347 -17.1594,-171.5934 -158.111,-75.9914 -208.3633,-187.5271 -164.2393,-364.0232 14.7079,-60.0576 20.8363,-113.987 13.4823,-121.3409 -18.3851,-18.385 -104.1817,186.3013 -125.018,300.2884 l -18.3851,95.602 -46.5753,-120.1153 c -47.801,-122.5668 -105.4074,-202.2351 -129.9207,-178.9475 -7.354,7.354 2.4513,50.2524 22.062,96.8278 18.385,45.3496 47.8009,149.5313 63.7347,230.4254 36.77,177.7216 57.6063,221.8456 154.434,324.8017 84.5711,89.4738 148.3058,110.31 75.9914,24.5134 l -46.5753,-55.155 61.2833,51.478 c 181.3987,154.434 240.2307,136.049 68.6374,-20.8364 z m 679.0195,90.6993 c -40.447,-18.385 -100.5047,-56.3806 -134.8233,-83.3453 -40.4471,-33.093 -8.5797,-23.2877 91.925,26.9647 268.4211,137.2747 193.6554,-9.8053 -104.1817,-202.235 -161.788,-104.1818 -158.1111,-129.9207 4.9026,-36.7701 177.7218,102.956 89.4738,-1.2256 -115.2127,-134.8234 -107.8586,-69.863 -221.8457,-165.465 -258.6157,-220.6201 -82.1197,-117.664 -110.3101,-106.633 -37.9957,14.708 66.186,113.9871 66.186,113.9871 -34.3187,72.3145 -100.5047,-42.8985 -110.31,-25.7391 -25.739,41.6726 34.3187,25.739 105.4074,111.5357 160.5624,189.9783 127.4693,181.3988 378.7311,370.1515 490.2668,366.4746 20.8364,0 3.6771,-15.9338 -36.77,-34.3188 z m 658.1833,-14.7079 c 42.8983,-29.4161 112.7613,-91.9251 156.8854,-140.9518 l 79.6683,-88.248 73.5401,80.894 c 235.328,254.9388 444.9172,268.4212 660.6345,44.124 95.6021,-99.279 93.1507,-102.9559 -36.77,-49.0266 -128.6951,52.7037 -235.328,28.1904 -327.2531,-77.217 -99.279,-112.7614 -98.0534,-140.9518 1.2257,-40.4471 178.9473,183.8501 495.1695,98.0534 628.7673,-171.5934 91.925,-183.85 7.3539,-277.0007 -213.2661,-235.328 -133.5978,24.5133 -230.4255,-3.677 -326.0275,-95.6021 -99.279,-95.602 -83.3454,-34.3186 23.2876,91.9251 87.0224,102.956 88.2481,105.4074 15.9337,47.801 -185.0757,-148.3057 -227.9741,-323.5761 -131.1464,-536.8422 58.8321,-129.9207 89.4737,-122.5668 34.3187,7.354 -55.155,133.5977 -28.1904,196.1067 78.4427,177.7217 49.0267,-7.354 77.217,-3.677 68.6373,9.8054 -7.3539,13.4822 14.7081,23.2876 50.2524,23.2876 89.4737,0 196.1068,60.0577 257.3901,147.08 205.9121,288.0318 322.3505,-227.974 127.4694,-565.0324 -58.8321,-100.5047 -112.7614,-213.2661 -120.1154,-250.0361 -17.1593,-88.2481 -36.77,-84.5711 -116.4383,18.385 -35.5444,47.801 -75.9914,85.7967 -89.4738,85.7967 -13.4823,0 9.8053,-42.8984 52.7038,-95.6021 98.0533,-122.5667 109.0843,-256.1644 25.7389,-324.8018 -31.8673,-24.5133 -45.3496,-45.3497 -31.8673,-45.3497 14.708,0 55.155,35.5444 90.6994,79.6684 l 66.1859,79.6684 -14.7079,-84.5711 c -19.6107,-105.4074 -93.1507,-186.3014 -193.6554,-210.8147 l -78.4427,-19.6107 67.4117,-9.8053 c 36.77,-4.9027 91.925,7.354 121.341,29.416 78.4428,53.9294 95.6021,47.8011 67.4117,-26.9647 -39.2213,-101.7303 -94.3764,-128.695 -231.6511,-116.4384 l -122.5667,11.031 80.894,-36.77 c 45.3497,-20.8364 110.31,-30.6417 150.7571,-22.0619 63.7347,12.2566 69.863,8.5796 57.6064,-37.9957 -37.9957,-147.0801 -191.2041,-158.1111 -474.3332,-36.77 -359.1205,153.2083 -362.7974,216.943 -34.3187,566.2581 246.3591,264.7441 243.9077,251.2618 56.3807,251.2618 -35.5443,1.2257 -104.1817,-15.9336 -151.9828,-35.5443 -111.5357,-46.5754 -214.4916,-46.5754 -326.0274,0 -80.8941,34.3186 -156.8854,44.124 -259.8414,33.0929 -61.2834,-6.1283 -63.7347,-2.4513 177.7218,-262.2927 312.5451,-334.6071 306.4167,-406.9215 -41.6728,-549.0989 -288.0318,-118.8897 -343.1868,-123.7923 -424.0808,-42.8983 -77.2171,77.2171 -62.509,116.4383 45.3497,116.4383 51.4781,0 115.2127,12.2567 140.9517,28.1904 37.9957,23.2877 24.5133,25.739 -75.9914,17.1593 -137.2747,-12.2566 -192.4297,14.7081 -231.6511,116.4384 -28.1903,73.5401 -8.5796,82.1197 61.2835,29.4161 53.9293,-40.4471 169.1419,-51.4781 145.8543,-13.4824 -8.5796,13.4824 -34.3186,24.5133 -58.832,24.5133 -63.7347,0 -147.0801,100.5047 -164.2394,197.3324 l -14.708,84.5711 66.186,-79.6684 c 35.5444,-44.124 77.217,-79.6684 93.1507,-79.6684 15.9337,0 3.677,17.1594 -26.9647,37.9957 -78.4426,56.3807 -74.7657,212.0404 9.8053,322.3505 85.7968,112.7614 57.6064,132.3721 -30.6417,20.8364 -84.5709,-105.4075 -96.8276,-106.6331 -113.9869,-18.3851 -7.354,37.9957 -61.2835,150.757 -120.1154,251.2617 -120.1154,209.5892 -142.1774,404.4703 -61.2833,556.4529 57.6062,106.633 104.1816,100.5047 229.1997,-30.6417 58.832,-61.2833 113.987,-109.0843 125.018,-107.8586 98.0533,15.9336 160.5624,-3.6771 115.2128,-36.7701 -41.6728,-31.8672 -35.5445,-31.8672 57.6062,-7.3539 153.2085,40.4469 192.4298,-77.2171 83.3454,-246.3591 -19.6107,-30.6417 -24.5133,-55.155 -11.0309,-55.155 39.2213,0 131.1463,240.2307 133.5976,343.1867 1.2257,110.31 -58.832,221.8457 -163.0136,297.8371 l -74.7658,56.3807 78.4427,-96.8277 c 95.6021,-115.2127 87.0224,-139.726 -18.385,-51.478 -83.3454,69.863 -134.8234,80.894 -154.434,33.093 -6.1283,-17.1594 -13.4823,-7.354 -13.4823,20.8363 -2.4514,49.0268 -7.3541,50.2524 -117.6642,22.0621 -313.7707,-79.6684 -360.3461,207.1377 -66.186,411.8241 160.5624,111.5357 475.5589,104.1817 475.5589,-11.031 0,-11.031 13.4823,-20.8363 29.416,-20.8363 15.9337,0 -2.4513,33.093 -41.6727,73.54 -88.248,91.9251 -196.1068,113.987 -317.4477,63.7347 -127.4695,-53.9293 -131.1464,-50.2524 -49.0267,37.9957 165.465,175.2704 357.8947,219.3944 509.8775,115.2127 z m 1239.1494,-7.354 c 66.1861,-33.0931 170.3678,-121.3411 237.7794,-198.5581 66.1861,-77.217 166.6907,-188.7527 224.2971,-250.036 126.2437,-134.8235 127.4694,-138.5004 15.9337,-91.9252 -118.8897,49.0267 -118.8897,50.2524 -47.801,-55.155 64.9604,-94.3763 75.9913,-128.695 44.124,-128.695 -11.031,0 -39.2213,35.5444 -62.509,79.6684 -24.5134,44.124 -79.6684,105.4073 -122.5667,136.049 -42.8983,30.6417 -142.1774,100.5047 -219.3944,154.434 -164.2395,113.9871 -188.7528,169.1421 -36.77,82.1197 164.2394,-94.3762 169.142,-69.8629 6.1283,34.3188 -290.4832,187.527 -373.8284,339.5098 -111.5357,202.2351 182.6244,-94.3764 196.1067,-79.6685 19.6107,20.8362 -154.4341,89.4738 -115.2128,99.2791 52.7036,14.7081 z m 637.3469,-201.0094 c 120.1154,-84.571 156.8854,-291.7088 84.5711,-480.4615 -63.7347,-164.2394 -83.3454,-164.2394 -66.1861,0 20.8364,207.1377 -12.2567,278.2264 -165.465,350.5408 -148.3058,69.863 -193.6554,115.2126 -143.403,147.08 57.6062,36.77 227.974,26.9647 290.483,-17.1593 z M 1906.8861,3782.3834 c -13.4824,-24.5133 -47.801,-104.1816 -77.2171,-176.4961 -57.6063,-144.6286 -49.0267,-204.6863 11.0311,-73.54 l 37.9957,82.1197 -14.7081,-96.8276 c -18.385,-126.2437 -51.478,-188.7528 -198.558,-371.3772 -64.9604,-82.1197 -138.5004,-176.4961 -161.7881,-208.3634 -40.447,-57.6064 -40.447,-56.3807 -6.1283,33.093 19.6106,50.2524 30.6417,91.925 24.5133,91.925 -15.9337,0 -109.0844,-191.204 -171.5934,-354.2177 -39.2214,-101.7304 -57.6064,-128.6951 -58.8321,-87.0224 -2.4512,106.6331 89.4738,383.6338 188.7528,573.6122 53.9294,101.7304 87.0223,178.9474 75.9914,171.5934 -12.2567,-7.354 -37.9957,-46.5754 -60.0577,-87.0223 -56.3807,-109.0844 -72.3144,-63.7347 -23.2877,64.9603 53.9294,140.9517 205.9121,334.6071 337.0585,430.2091 107.8586,77.2171 136.049,79.6684 96.8277,7.354 z m 2352.0551,-113.987 c 133.5978,-133.5977 225.5228,-284.3548 256.1645,-421.6295 13.4823,-60.0577 0,-49.0266 -71.0887,61.2834 -49.0266,74.7657 -88.248,125.018 -88.248,113.987 -1.2257,-11.0309 20.8364,-51.478 47.801,-89.4737 112.7614,-158.1111 291.7088,-656.9576 264.7441,-736.6259 -6.1283,-18.385 -36.77,39.2214 -68.6373,125.018 -56.3807,150.7571 -209.5892,440.0146 -234.1025,440.0146 -6.1283,0 23.2876,-63.7347 64.9604,-140.9518 82.1197,-153.2083 57.6064,-129.9207 -149.5314,138.5004 -133.5977,174.0447 -191.2041,288.0318 -193.6554,382.4081 0,35.5444 12.2567,25.7391 46.5753,-36.77 67.4118,-122.5667 60.0578,-79.6684 -24.5133,138.5004 -40.447,105.4074 -73.54,194.881 -73.54,198.5581 0,25.739 109.0844,-58.8321 223.0713,-172.8191 z M 1194.7735,3463.71 c -14.7081,-51.4781 -25.739,-143.4031 -25.739,-204.6864 l 1.2256,-110.3101 35.5444,83.3454 c 46.5754,106.633 69.863,84.5711 39.2213,-37.9957 -13.4823,-51.478 -30.6416,-149.5314 -37.9957,-216.943 l -13.4823,-122.5668 51.478,165.4651 c 29.416,90.6994 63.7347,165.4651 75.9914,165.4651 13.4824,0 15.9336,-19.6107 7.354,-42.8984 -36.7701,-90.6994 -62.509,-322.3504 -63.7347,-557.6785 -1.2257,-312.5452 -44.124,-256.1645 -137.2747,180.1731 -67.4118,312.5451 -57.6064,574.8378 29.416,741.5285 51.478,98.0535 71.0887,75.9914 37.9957,-42.8983 z m 3650.0367,-56.3807 c 44.124,-158.1111 28.1903,-486.5898 -35.5444,-741.5286 -89.4737,-361.5718 -101.7303,-361.5718 -118.8897,-3.677 -7.3541,172.8191 -26.9646,357.8948 -41.6727,409.3728 -25.739,85.7967 -18.385,140.9517 13.4824,109.0844 7.354,-7.354 29.416,-83.3453 49.0266,-169.1421 l 35.5444,-156.8854 -12.2567,159.3368 c -6.1283,88.248 -17.1593,192.4297 -24.5133,232.8767 -11.031,67.4117 -8.5797,64.9603 37.9956,-24.5133 l 50.2524,-98.0534 -12.2567,159.3367 c -7.354,88.2481 -19.6107,192.4297 -28.1903,232.8768 -20.8363,105.4074 52.7037,13.4824 87.0224,-109.0844 z m -2412.1129,-3.677 c 85.7966,-95.602 -79.6684,-118.8897 -180.1731,-25.739 l -67.4117,62.509 61.2834,14.7081 c 80.894,20.8362 134.8233,4.9026 186.3014,-51.4781 z m 1333.5258,25.7391 c 0,-66.1861 -210.8147,-138.5004 -261.0671,-89.4738 -20.8364,22.062 40.447,91.925 98.0534,113.9871 56.3806,20.8363 163.0137,4.9026 163.0137,-24.5133 z M 1756.129,2865.5845 c -42.8983,-113.9871 -105.4074,-284.3548 -139.726,-378.7312 -53.9294,-148.3057 -63.7347,-213.2661 -64.9604,-471.8818 -1.2257,-165.4651 -4.9026,-300.2884 -8.5797,-300.2884 -19.6107,0 -90.6993,308.868 -105.4074,465.7534 l -17.1593,183.8501 -4.9026,-159.3368 c -4.9028,-242.682 -50.2524,-131.1463 -51.4781,127.4695 0,216.943 50.2524,414.2755 134.8234,523.3598 31.8673,42.8983 31.8673,37.9957 0,-42.8984 -20.8363,-50.2523 -36.77,-105.4073 -36.77,-122.5666 1.2257,-17.1594 28.1904,31.8673 60.0577,111.5357 52.7037,128.695 172.8191,334.607 194.881,334.607 3.6771,0 -29.416,-90.6993 -73.54,-202.235 -125.018,-306.4168 -99.279,-308.8681 45.3497,-4.9026 151.9828,318.6734 193.6554,279.452 67.4117,-63.7347 z m 2499.1353,87.0223 c 166.6907,-341.9612 199.7837,-334.6071 46.5753,9.8053 -111.5357,248.8104 -61.2834,226.7485 75.9914,-34.3186 42.8983,-80.894 69.863,-118.8897 61.2833,-85.7968 -33.0929,123.7925 41.6727,8.5797 101.7304,-158.111 42.8983,-120.1154 57.6064,-209.5891 56.3807,-339.5098 -3.677,-252.4874 -40.447,-350.5408 -47.801,-127.4694 l -4.9027,171.5934 -20.8363,-189.9784 c -20.8364,-196.1067 -90.6993,-484.1384 -117.664,-484.1384 -7.3541,0 -14.7081,151.9826 -15.9338,337.0584 l -1.2257,337.0584 -112.7612,281.9035 c -62.5092,155.6597 -120.1154,312.5451 -128.6951,349.3151 -7.3541,36.77 -19.6107,95.6021 -25.7391,128.695 -23.2876,109.0844 6.1284,66.1861 133.5978,-196.1067 z M 1854.1824,2804.301 c -36.7701,-166.6907 -69.863,-620.1874 -51.478,-691.2762 14.7079,-51.478 22.0619,-25.739 33.0929,116.4384 24.5135,312.5451 63.7347,346.8638 68.6375,61.2834 3.6769,-215.7175 7.3539,-230.4255 24.5133,-126.2437 23.2877,139.726 47.801,177.7216 47.801,72.3143 0,-399.5675 90.6993,-973.1797 194.8811,-1220.7645 l 50.2523,-122.56662 -51.478,61.28332 c -79.6683,93.1507 -207.1378,361.5718 -267.1954,560.1299 -72.3144,235.3281 -82.1197,212.0404 -26.9647,-58.832 57.6064,-280.6778 49.0267,-284.3549 -69.8631,-33.0931 -183.85,384.8595 -223.0713,743.9799 -122.5666,1119.0341 57.6064,212.0405 85.7966,264.7441 64.9603,116.4384 -12.2567,-80.894 -7.3539,-73.54 30.6416,44.124 79.6685,247.5848 118.8899,301.5142 74.7658,101.7303 z m 2315.2852,-72.3143 c 31.8674,-99.279 36.77,-106.633 28.1903,-36.77 l -11.031,85.7967 36.77,-85.7967 c 128.695,-292.9344 133.5978,-739.0773 9.8053,-1078.5871 -123.7923,-344.4124 -251.2616,-509.8775 -160.5623,-210.8147 63.7347,208.3634 44.124,300.2884 -20.8364,100.5047 -62.509,-189.9784 -191.204,-459.6252 -263.5183,-552.77588 -45.3498,-56.3807 -44.1241,-51.47797 3.6769,74.76568 95.6021,247.5848 147.08,539.2935 163.0137,913.122 14.7081,366.4745 40.447,457.1738 68.6374,245.1334 28.1903,-207.1377 37.9957,-171.5933 25.739,99.2791 -6.1283,144.6287 -1.2257,257.3901 9.8053,250.036 24.5133,-14.7079 72.3144,-284.3547 83.3454,-465.7534 3.677,-67.4117 8.5797,-15.9337 11.031,115.2126 4.9026,214.4918 -25.739,544.1962 -60.0577,669.2143 -29.416,105.4074 37.9957,-3.677 75.9914,-122.5667 z M 2808.9771,2488.079 c 96.8276,-50.2524 131.1464,-143.4031 61.2833,-170.3678 -22.062,-7.354 -35.5443,-1.2257 -33.093,15.9337 8.5797,69.8631 -6.1284,95.602 -82.1196,140.9517 -91.9251,56.3807 -50.2524,66.1861 53.9293,13.4824 z m 454.7224,11.0309 c -8.5796,-13.4823 -29.4159,-24.5133 -46.5753,-24.5133 -50.2523,0 -115.2127,-87.0223 -98.0534,-131.1464 11.0311,-30.6416 4.9028,-36.77 -24.5133,-25.739 -71.0887,26.9647 -33.093,120.1154 71.0887,177.7218 61.2833,34.3186 117.664,35.5443 98.0533,3.6769 z m -1100.649,-870.2236 c 41.6726,-170.3677 178.9474,-512.3289 198.558,-493.9439 4.9028,6.1284 -12.2566,77.2171 -40.4469,159.3368 -93.1507,277.0008 -56.3807,297.8371 56.3807,31.8674 98.0533,-231.6511 246.3591,-474.33325 422.8551,-691.27628 105.4073,-128.69505 140.9517,-187.52711 106.633,-175.2704 -110.31,41.67263 -367.7001,257.39008 -474.3331,399.56741 -62.5091,82.11968 -112.7614,137.2747 -112.7614,122.56674 0,-41.67263 118.8897,-225.5228 203.4608,-314.99647 41.6726,-44.12399 63.7346,-79.66832 49.0266,-79.66832 -15.9337,0 -88.248,67.41172 -163.0137,149.53141 -214.4918,236.55372 -337.0584,607.93091 -332.1558,1002.59571 2.4514,223.0714 3.677,221.8457 85.7967,-110.3101 z m 1718.3853,55.1551 c -29.416,-489.0412 -189.9784,-875.12637 -441.2402,-1052.84813 -74.7657,-53.92934 -73.54,-50.2524 23.2877,66.18605 55.1551,67.41172 125.018,172.81903 154.4341,232.87678 l 52.7036,110.31 -53.9293,-73.53999 C 3512.51,826.07436 3210.9959,542.94529 3109.2655,491.4672 c -126.2437,-63.73468 -131.1464,-39.22137 -15.9336,72.31435 131.1464,127.46947 313.7707,404.47013 451.0454,686.37365 68.6375,138.5004 129.9208,257.3901 136.0491,264.7441 23.2877,22.062 -18.385,-153.2084 -63.7347,-277.0008 -33.093,-88.248 -35.5443,-111.5357 -11.031,-85.7966 67.4117,69.8629 234.1024,557.6784 234.1024,687.5992 0,58.832 17.1594,95.602 44.124,95.602 6.1283,0 4.9027,-112.7614 -2.4513,-251.2617 z m -571.1609,105.4073 c 102.956,-41.6727 209.5891,-74.7656 236.5538,-74.7656 69.863,0 62.509,-113.9871 -14.7081,-226.7485 -66.186,-99.279 -93.1507,-117.664 -67.4116,-49.0267 9.8054,23.2877 -39.2214,-17.1594 -107.8588,-91.9251 -143.403,-154.434 -183.85,-153.2083 -94.3762,2.4514 69.8629,122.5667 84.5709,189.9785 19.6105,93.1507 -85.7966,-128.695 -308.868,-352.9922 -318.6734,-321.1248 -6.1283,17.1594 -57.6064,74.7657 -115.2127,128.6951 -56.3806,53.9293 -117.6641,125.018 -136.0491,158.1111 -18.385,34.3186 -42.8983,61.2833 -55.155,61.2833 -12.2566,0 6.1284,-51.478 41.6728,-113.9871 89.4736,-160.5623 57.6062,-163.0137 -89.4738,-7.354 -69.863,73.54 -118.8897,112.7614 -109.0844,87.0224 29.4161,-78.4427 -46.5753,0 -91.925,94.3764 -60.0576,125.018 -51.478,185.0758 23.2877,185.0758 35.5444,0 87.0223,13.4822 116.4384,29.4159 286.8061,153.2084 463.3022,164.2395 762.3649,45.3497 z"
       id="path20"
       style="fill:#000000;fill-opacity:1;stroke-width:1.22567" />
    <path
       d="m 3061.4645,292.90918 c -44.124,-26.96467 -79.6684,-60.05772 -79.6684,-73.54006 0,-39.22134 22.0621,-29.41601 105.4075,49.02665 91.925,85.79673 84.5709,91.92503 -25.7391,24.51341 z"
       id="path22"
       style="fill:#000000;fill-opacity:1;stroke-width:1.22567" />
  </g>
</svg>
