<svg width="233.64pt" height="297.64pt" version="1.0" viewBox="0 0 233.64 297.64" xmlns="http://www.w3.org/2000/svg">
 <g transform="matrix(.11274 0 0 -.11274 -55.086 314.56)" fill="#FFF">
  <path d="m1486 2753c-21-21-51-57-67-80-35-50-63-123-48-123 5 0 21-11 34-25 45-44 24-142-33-157-27-7-78 16-92 42-17 32-15 88 4 109 22 24 13 42-39 80-67 48-135 74-135 51 0-5 7-10 15-10 25 0 108-46 134-73 22-24 22-27 7-49-34-48-11-121 49-156 42-26 44-40 8-48-16-3-40-10-55-14-17-6-28-5-28 1 0 5-6 9-14 9s-26 14-40 31-26 26-26 21c0-6 15-23 34-40l34-30-44-12c-60-17-73-5-50 45 14 29 15 42 6 70-11 32-45 68-73 78-8 2-6 15 7 41 10 21 15 44 12 52s-2 13 3 10 17 6 26 20c14 21 15 28 4 35-19 12-26 4-48-57-28-72-28-124-2-124s61-46 61-79c0-15-7-37-16-49-43-61-138 23-106 94 11 22 8 26-34 50-32 19-64 28-112 31l-67 6 28-30c19-21 35-29 50-26 25 5 46-14 71-62 9-17 16-23 16-15 0 27-60 90-85 90-12 0-29 7-36 17-13 15-10 15 26 9 22-4 61-17 86-27l46-20-4-47c-4-51 3-65 55-101 41-29 40-43-3-64l-35-17v25c0 25-57 115-73 115-4 0-5 4-2 10 8 13-21 66-40 74-28 10-35 7-35-17 0-25 24-52 62-71 12-6 25-23 29-38 7-26 3-30-49-62-77-47-242-127-328-161l-72-28-6-45c-21-154 4-435 58-645 126-488 384-875 734-1102 83-53 211-115 239-115 11 0 62 21 114 48 361 181 643 532 804 1004 90 262 134 591 109 805l-7 51-61 22c-70 26-257 115-333 160-37 21-53 37-53 51 0 28 18 59 34 59 18 0 66 56 66 77 0 12-7 14-30 9-19-3-29-2-25 4 3 6 19 10 34 10 16 0 37 10 51 25l23 25h-48c-29 0-69-10-104-25l-57-26v-55c1-47-3-59-23-75-13-10-34-19-47-19-26 0-54 34-54 65 0 32 37 85 60 85 32 0 34 25 9 102-17 49-29 72-41 74-21 3-33-12-18-21 6-4 7-11 4-17-4-6-2-8 3-5 14 9 22-12 17-49-2-16-1-20 2-9 8 28 20 38 20 17 1-9 4-29 8-44 6-21 4-27-13-33-51-16-76-91-49-150 17-37 0-51-45-36-35 12-49 15-125 30-24 5-46 11-49 15-8 8 17 36 32 36 7 0 25 14 39 31 30 36 35 96 11 133-15 22-14 25 16 50 45 38 108 69 130 63 11-3 19-1 19 4 0 35-95 1-159-56l-40-36 20-32c24-40 24-64 0-103-36-60-109-62-138-4-22 44-16 79 22 117l35 35-23 52c-23 50-120 176-136 176-4 0-25-17-45-37zm91-30c23-27 55-71 70-100l28-52-27-28c-15-16-33-43-39-61-9-27-8-39 11-77 34-70 28-75-95-75-104 0-105 0-105 23 0 13 7 38 16 56 22 43 11 97-27 132-25 24-28 31-19 54 6 16 14 23 22 19 8-5 9-2 5 9-4 10-2 16 5 14 6-1 13 4 16 12 3 9 0 11-8 6-9-5-11-4-6 4 4 6 11 9 16 6 4-3 13 2 20 10s16 12 21 9 8 0 7 8c-2 7 7 14 20 16 16 3 22 10 22 30 0 26-1 25-47-18-26-25-39-34-28-20 39 50 59 70 69 70 6 0 30-21 53-47zm-474-118c-3-9-8-14-10-11-3 3-2 9 2 15 9 16 15 13 8-4zm1107-130c-7-8-23-15-35-15-24 0-75-51-75-73 1-7 8 1 16 16 9 16 18 26 22 23 3-4 0-12-6-18-7-7-12-23-12-36s-4-20-10-17c-5 3-10 0-10-7 0-8-6-20-12-26-13-13-14-17-17-49-1-16-3-16-12-3-8 12-10 9-6-12 6-42-5-51-44-32-19 10-35 18-37 19-9 7 15 37 43 54 40 23 64 85 46 118-9 19-6 23 37 41 51 22 76 29 106 31 15 1 16-2 6-14zm-482-173c18-4-72-7-200-7-207 0-226 1-173 12 62 12 311 9 373-5zm-259-16c-9-8-99-13-99-5 0 5 23 9 52 9 28 0 49-2 47-4zm205-4c7-12-118-62-152-61-15 0-49 11-77 24l-50 23 135 3c91 1 122 4 95 9l-40 7 42 2c23 0 44-3 47-7zm-676-33c-3-8-7-3-11 10-4 17-3 21 5 13 5-5 8-16 6-23zm367 14c31-12 69-37 105-72 32-31 40-42 20-27-89 67-205 104-284 92-26-5-37-4-31 3 25 24 126 26 190 4zm509-3c8-8-1-9-30-4-81 12-220-33-273-90-14-14-29-26-35-26-15 0 53 68 93 92 61 38 102 49 170 43 36-2 69-9 75-15zm-903-22c10-13 18-28 19-35 0-6-24-27-52-46-77-50-98-59-120-54-14 4-18 1-14-8 5-14 1-16-138-79l-78-36 5-167c7-242 52-463 137-675 22-55 40-117 40-137 0-26 3-32 10-21 11 18 12 17 40-40 77-157 193-311 384-509 68-71 165-143 254-189 44-22 70-42 67-49-7-20 9-15 22 5 6 11 27 26 47 36 64 30 230 161 286 226 30 34 91 101 135 149s89 104 100 126 37 66 58 98 48 82 60 110c26 66 25 64 42 41 14-18 14-17 9 12-4 23 4 55 31 120 58 139 87 251 129 497 4 20 12 37 18 37 9 0 9 3 0 12-8 8-9 39-5 103 3 50 3 121-1 158-6 56-11 67-29 73-12 4-59 24-105 46-70 33-82 41-72 53 11 13 8 14-16 9-32-6-85 19-142 68-37 31-37 31-16 63l15 24 52-31c75-45 199-106 300-148l88-37-33-25c-32-25-33-27-29-89l4-64 8 43c5 24 18 60 31 80l23 37 3-150c8-393-121-820-349-1160-154-229-336-394-552-500-107-53-109-53-145-39-297 119-576 394-753 742-68 133-127 288-164 432-52 200-81 456-67 600l7 74 18-27c9-15 24-51 32-79l14-53v67c1 64 0 68-29 85-16 9-30 20-30 24s17 13 38 19c52 17 310 144 352 174 19 14 37 25 38 26 2 0 12-10 23-22zm351-18c28-11 69-33 90-50 49-40 50-22 1 20l-38 31 34-18c18-10 53-37 77-60 42-41 45-42 57-22 13 21 125 104 132 97 2-2-9-12-24-22-16-11-33-28-40-38-6-10 9-3 34 17 25 19 69 41 97 50 62 18 111 19 53 1-98-31-181-94-236-178l-37-58-13 33c-31 74-173 186-263 208l-31 7 27 1c15 1 51-8 80-19zm-17-29c33-17 84-55 115-85 45-46 52-58 41-68-8-8-11-8-8-2 18 32-117 118-203 129l-45 6 55-19c63-21 124-51 117-58-2-2-24 5-48 16-54 24-204 27-259 4-22-9-25-12-10-9 77 16 166 16 195 1 17-9 41-16 54-16s21-3 18-6c-4-4-46-8-94-9-106-2-182-29-248-87-54-47-59-38-9 15 49 51 103 77 180 84 35 3 67 10 71 16 8 13-99 1-157-18-25-8-70-35-100-60-55-45-110-72-110-54 0 5 3 9 8 9 4 1 32 24 62 52 40 37 47 46 25 35-16-9-45-30-63-48-54-51-46-27 10 29 51 52 135 102 170 102 10 0 18 5 18 10 0 12-40 4-90-18-19-9-39-18-45-20-5-3 8 14 30 37 75 78 201 90 320 32zm671 24c33-10 62-28 89-56 22-23 36-40 30-37-5 2-26 11-45 20s-51 18-70 22c-39 7-42 9 65-40 28-12 65-37 84-55 21-20 36-29 39-21 4 14 72-26 126-77l39-36-22 33c-12 17-31 37-42 42-10 6-19 15-19 21 0 5 16-2 35-16 42-32 78-107 94-195 7-36 21-80 31-97 11-18 15-33 10-33-17 0-47 55-73 134-30 88-56 128-122 182-48 39-72 40-39 2 19-22 19-23-1-8-11 8-26 21-34 28-21 20-61 45-65 41-3-2 20-24 49-49 30-25 54-48 54-52 2-15-63 20-112 59-70 58-202 98-243 75-11-6 5-11 54-15 82-7 133-30 185-83 52-54 46-64-9-15-69 60-140 84-251 85-51 1-93 4-93 9 0 4 6 7 13 8 30 2 62 10 74 21 13 10 118 6 183-7 14-3 7 2-15 11-54 21-216 15-262-9-18-10-33-14-33-9 0 10 53 35 120 57l45 15-45-6c-24-3-63-13-86-23-44-20-124-86-124-104 0-6 11 0 25 13s25 19 25 14-14-18-30-29-30-23-30-27c0-5-4-8-9-8-19 0 30 78 77 122 100 94 216 127 328 93zm-442-37c-3-5-12-4-20 3-19 16-18 18 6 12 11-3 17-9 14-15zm-627-86c-9-10-33-24-53-31-35-13-74-46-119-102-14-17-10-16 15 7 49 44 130 97 130 85 0-5-16-19-35-31-63-39-113-107-136-184-11-39-33-90-49-113-18-26-25-43-17-43 7 0 18 5 25 12 15 15 15 14-3-46-8-27-15-63-16-80l-1-31-9 30c-18 61-20 118-4 142 9 12 24 62 36 110 28 122 34 135 93 193 62 61 191 135 143 82zm1266-4c12-7 28-13 36-14 18-3 39-24 24-24-17 0-81 29-88 40-8 13 1 13 28-2zm-507-25c-10-10-19 5-10 18 6 11 8 11 12 0 2-7 1-15-2-18zm-250 2c10-8 14-15 8-15-5 0-19 7-30 15-10 8-14 15-8 15 5 0 19-7 30-15zm-136 1c0-2-7-7-16-10-8-3-12-2-9 4 6 10 25 14 25 6zm-40-14c0-4-9-13-20-20-15-9-20-9-20-1 0 7-24-10-52-38-29-27-78-65-109-85s-60-41-63-47c-9-13 93 36 117 57 15 13 17 13 12 1-3-8-36-34-73-59-81-54-139-105-159-143-8-16-17-27-19-24-8 7 21 59 52 96 31 38 27 39-22 6-20-14-43-25-50-25-8 0-14-4-14-10 0-5 6-10 13-10 17 0 15-71-3-115-7-16-15-48-17-70-7-54-22-80-23-40l-1 30-14-37c-35-94-44-323-15-352 6-6 10-19 10-30 0-33-10-13-46 95-61 182-68 373-18 470 22 43 27 31 10-22-17-51-27-199-14-199 4 0 8 11 8 25s6 40 13 58c8 18 12 49 9 70-3 23 0 37 7 37 6 0 11-4 11-9s6-11 14-14c10-4 7 11-10 53-30 73-31 143-4 187 19 32 64 61 88 57 6-1 31-2 54-3l41-1-22-24c-12-13-42-31-66-40-57-22-79-57-78-121 0-27 6-61 11-75 9-21 11-16 11 34 1 33 4 57 7 53 3-3 11-2 18 4 6 5 23 19 39 30 15 11 45 47 66 78 22 32 56 72 76 89 38 34 126 82 147 82 7-1-5-10-27-22-51-26-107-69-101-76 3-3 13 1 22 9s51 33 93 55c73 40 111 52 111 36zm610-2c10-6 11-13 5-19-7-7-19-3-35 9-23 18-23 20-5 20 11 0 27-5 35-10zm-444-19c35-21 114-100 114-114 0-5 22 16 50 46 102 112 168 115 293 12 47-38 47-48 0-24-74 38-149 16-193-55-12-21-20-39-17-42s12 8 21 24c24 46 79 75 129 70 86-10 190-102 190-168 0-54-18-63-105-55-83 7-103 1-150-43-35-32-36-50-2-27 25 16 25 16 14-5-6-12-9-28-6-36s1-12-4-9-18 1-29-5c-20-10-21-7-12 53 0 4 21 29 45 55 44 48 73 93 59 91-4-1-36-32-70-70-61-66-63-70-63-123 0-60 9-90 46-154 35-59 41-47 9 17-15 28-25 64-23 79 3 30 12 31 98 18 33-6 41-5 30 3-8 6-26 11-40 12-15 1-5 5 24 11 37 8 58 20 89 54 54 57 73 57 99-2 33-76 23-140-40-250-29-49-52-101-52-114 0-22-5-19-46 28-25 29-55 57-67 64-15 8-10-2 15-30 75-83 90-149 44-189-15-12-34-23-42-23s-14-4-14-10c0-13 4-13 45 4 35 15 65 59 65 96 0 22 42 113 93 200 28 49 32 52 35 30 1-14 14-72 27-130s29-130 34-160c10-54 10-54 5 20-2 41-11 99-19 129s-10 50-5 45c22-22 50-172 50-271 0-121-17-195-72-316-34-76-43-99-47-127-1-3-17-18-37-34l-36-28 17 33c10 19 26 43 36 54s25 50 33 85c34 156 28 218-8 75-9-38-42-122-72-185-31-63-57-122-59-131-2-8-19-31-38-50-62-62-71-65-29-9 57 76 96 160 120 260 35 143 56 430 32 430-6 0-10-29-10-66 0-36-5-74-11-85s-14-71-19-132c-5-62-16-141-25-176-21-88-79-193-142-259-29-31-53-57-53-59s15 4 33 12l32 16-25-21c-43-36-135-97-178-119-40-21-44-21-75-5-60 32-157 99-154 107 1 5-24 36-56 70-98 103-152 241-163 419-3 51-12 120-19 153-8 33-14 80-14 105 0 29-5 48-15 56-10 7-16 26-16 48 0 20-4 36-9 36-14 0-23-148-12-205l9-50 1 45c2 58 12 120 20 120 3 0 5-39 5-87-2-121 22-302 52-401 22-72 54-138 111-222 10-14-3-6-29 18-25 24-45 49-45 55 1 7-25 65-56 129-32 64-65 152-75 194-10 43-21 73-24 68-13-21 37-248 52-239 3 2 17-17 29-43l23-47-27 25c-30 28-94 157-132 265-44 126-41 344 8 472 16 43 18 21 3-37-17-66-30-198-19-187 5 4 10 26 12 50 4 49 30 177 46 227 6 19 10 45 8 58-4 35 13 26 37-20 11-24 30-59 41-78 41-74 60-120 55-133-8-21 38-79 74-94 19-8 32-9 32-3 0 5-11 12-25 16-76 19-70 109 13 196 20 21 33 40 30 43-2 3-31-22-62-55-32-33-59-60-62-60-2 0-4 12-4 27 0 14-20 60-44 102-58 98-69 149-52 225 21 90 42 96 108 31l46-45-19-51c-11-28-18-56-16-62s9 4 15 21c7 18 17 46 23 63 8 20 17 28 26 25 8-4 24-6 36-7 16-1 12-4-12-10-55-16-26-23 35-9 47 12 57 12 64-1 11-17 4-51-22-102-24-49-16-60 11-16 35 57 54 126 47 172-5 34-19 55-71 110-77 79-87 73-15-9 57-66 67-95 14-42-43 44-74 55-74 26 0-10-4-17-10-13s-6 15 1 32c6 15 7 45 3 68-4 22-6 54-5 70 1 23 0 27-9 15-6-9-8-41-4-81l6-66-38-6c-103-17-130-3-121 64 4 28 16 53 39 76 39 42 120 83 163 83 39 0 92-33 113-70 9-16 21-30 25-30 14 0-27 61-61 91-41 36-99 39-157 8l-40-21 30 32c43 46 124 90 165 90 19 0 49-9 66-19zm596-22c51-33 106-90 155-162 18-26 49-55 69-64 35-17 36-18 32-70-3-57 7-70 19-25 11 40 8 114-6 140-6 12-38 35-69 51-32 16-64 36-70 44-11 13-6 16 35 19 95 9 144-31 151-121 3-45-1-71-21-119-26-67-25-75 5-40l19 23-2-50c-1-28 4-66 11-85 28-76 29-77 29-35 0 43-21 169-34 198-4 9-3 17 2 17s18-24 29-52c31-86 27-265-10-388-38-129-46-139-39-50 6 78-7 205-29 275l-12 40-6-30c-5-25-7-27-13-12-4 10-7 33-7 50 0 18-11 55-24 83-47 101-74 133-159 189-45 29-91 63-102 76-18 20-16 20 30-6 28-15 60-34 73-42 12-7 22-9 22-4s-33 29-72 54c-72 45-147 112-137 122 7 6 86-31 124-59 50-37 62-40 30-8-16 17-52 43-80 57-38 21-43 26-20 20 17-3 51-20 77-36zm-512 0c0-6-4-7-10-4-5 3-10 11-10 16 0 6 5 7 10 4 6-3 10-11 10-16zm-793-42c-12-18-33-80-46-137-29-122-38-113-40 37l-1 92 43 20c61 28 70 26 44-12zm1702 13 39-19-2-105c-1-58-5-108-8-112-4-3-14 30-23 73s-26 98-38 123-23 48-25 53c-6 13 18 8 57-13zm-1564-165c-22-19-41-32-43-30-8 8 21 46 46 59 42 22 41 8-3-29zm1413-9c4-17 2-17-23 0-14 9-31 26-37 37l-10 20 33-19c19-11 35-28 37-38zm-1205 22c-6-7-23-47-38-88s-32-79-36-84c-13-14-11-28 2-20 6 3 22 30 35 58 22 46 24 48 18 16-11-67-33-103-167-272-10-13-4 4 13 37 18 33 39 68 48 78 10 11 11 17 3 17-18 0-87-114-116-193-41-110-46-118-39-67 11 75 63 210 116 298 27 46 48 86 45 88-5 5-59-70-81-114-28-55-29-29-1 33 34 77 89 149 150 196 47 36 69 44 48 17zm1058-57c53-53 140-203 126-217-3-3-13 9-23 28-26 51-75 120-81 114-3-3 10-29 29-58 66-100 122-237 133-328 5-42 4-41-20 25-29 81-68 157-103 203-41 54-36 28 8-43 24-36 40-68 37-71s-11 5-18 18c-6 12-37 54-67 92-50 63-101 160-102 194 0 22 17 4 24-24 7-27 36-77 42-71 2 1-16 51-40 110-51 123-44 126 55 28zm-1041-60c0-6-4-13-10-16-5-3-10 1-10 9 0 9 5 16 10 16 6 0 10-4 10-9zm125-21c-3-5-13-10-21-10s-14 5-14 10c0 6 9 10 21 10 11 0 17-4 14-10zm710 0c3-5 2-10-4-10-5 0-13 5-16 10-3 6-2 10 4 10 5 0 13-4 16-10zm511-8c16-14 20-26 16-55-6-52-19-55-30-5-5 24-13 51-17 61-9 22 4 21 31-1zm-1134-29c27-24 22-33-19-33-34 0-73 22-73 42 0 15 73 8 92-9zm598-3c-12-22-44-33-86-28l-29 3 23 23c15 15 34 22 62 22 38 0 40-2 30-20zm-535-6c28-18 35-50 9-40-9 3-19 6-24 6-4 0-10 11-12 25-6 29-5 30 27 9zm-330-116c-4-24-31-109-61-190-29-80-58-176-65-214-11-63-8-168 7-224 5-17 3-22-4-15-19 18-43 129-49 229-4 71-9 93-16 81-5-10-7-49-5-86 3-38 1-69-3-69-16 0-14 193 2 253 13 49 48 131 54 125 2-2-4-28-15-56-11-29-20-62-19-75 0-12 10 7 23 43 24 69 64 152 90 185 19 25 21 7 2-20-15-23-61-137-70-177-4-17-2-28 4-28 5 0 10 6 10 13 0 8 22 58 48 113 27 54 52 111 56 127 10 43 19 32 11-15zm1106-108c26-58 50-114 53-124 4-10 9-16 12-13 9 9-34 146-62 196-26 48-29 55-15 47 18-11 71-117 96-188 16-48 25-64 25-46 0 15-9 50-20 78s-16 49-11 45c15-8 52-113 62-175 10-56 2-200-10-200-4 0-5 27-3 60 2 32 1 72-4 87-6 21-9 5-14-67-8-119-38-243-56-236-8 3-11 0-8-8 5-12-20-58-88-165-37-58-35-48 4 30 17 35 42 96 54 134 13 39 23 60 24 48 0-41 19-24 26 23 14 99 0 191-55 349-54 156-81 247-80 268 0 7 5 1 11-13s32-72 59-130zm189-276c0-8-4-14-10-14-5 0-10 9-10 21 0 11 5 17 10 14 6-3 10-13 10-21zm-1480-134c0-5-2-10-4-10-3 0-8 5-11 10-3 6-1 10 4 10 6 0 11-4 11-10zm116-168c12-31 29-75 38-97 17-42 13-38-47 56-28 45-36 65-31 84 8 33 14 27 40-43z"/>
  <path d="m1547 2690c48-19 58-95 18-135-31-32-50-31-81 1-27 26-29 59-9 109 6 16 5 17-4 9-7-6-15-29-18-51-4-32 0-44 22-71 32-39 62-41 99-7 48 44 25 156-32 154-13 0-12-2 5-9z"/>
  <path d="m1484 2646c-14-29-15-37-3-62 26-53 99-35 99 25 0 70-68 96-96 37zm66-37c0-31-11-42-34-33-19 7-21 55-4 72s38-4 38-39z"/>
  <path d="m1495 2470c-14-22-25-43-25-47 0-13 50-83 59-83 10 0 55 69 56 85 0 6-6 10-14 10s-16 6-19 14c-3 9 0 11 8 6 7-5 5 6-6 24-10 17-22 31-26 31s-19-18-33-40zm55-2c0-6-6-5-14 1-12 10-18 7-30-18-15-28-15-33 3-61l19-31 22 35c30 49 36 46 8-4-13-22-27-39-31-37-5 1-17 18-28 38l-21 35 22 37c18 30 25 35 36 26 8-6 14-16 14-21zm-10-49c0-5-4-9-10-9-5 0-10 7-10 16 0 8 5 12 10 9 6-3 10-10 10-16z"/>
  <path d="m742 1575c-7-16-15-67-17-114l-5-86 14 55c7 30 20 74 28 97 9 24 12 40 7 38-4-3-9 5-11 17-3 21-4 21-16-7z"/>
  <path d="m1025 1408c-22-68-28-116-31-260-3-107-1-169 6-173 6-4 10 23 10 77 0 101 15 198 32 211 9 6 7 7-6 3-17-6-18-2-11 51 12 94 12 103 8 103-2 0-5-6-8-12z"/>
  <path d="m2019 1405c-1-5-1-14 1-20 2-12 10-141 17-294 4-88 8-119 15-107 14 25 13 248-1 324-12 65-28 115-32 97z"/>
  <path d="m1300 1337c0-18 26-54 79-107 115-113 131-135 131-178 0-50-13-61-124-106-109-44-148-46-181-10-35 38-32 51 11 46 36-4 124 23 124 38 0 5-21 2-46-7-66-22-113-10-136 36-21 42-16 51 13 25 24-22 112-25 132-5 8 8 0 10-33 6-64-8-106 19-122 79-13 51-28 53-20 4 3-18 4-51 4-72-1-23 5-51 15-65s16-36 14-49c-2-16 9-34 33-57 21-19 36-43 36-56 0-42 39-106 75-123 18-9 44-29 58-45 13-16 35-32 48-36 19-5 11 6-33 51-31 33-64 75-72 94-13 28-15 30-11 8 3-14 8-34 11-45 5-16 4-16-11 2-22 26-45 79-45 105 0 15 7 20 29 20 16 0 65 14 108 31 125 50 171 49 301-8 29-13 66-23 82-23 25 0 30-4 30-25 0-26-36-111-51-121-12-7-11-2 6 39 18 42 18 47 6 47-5 0-12-14-16-30-7-33-99-139-110-128-4 4 0 14 8 23 19 18 59 124 54 139-3 6-8 2-11-9-15-44-44-86-103-149-35-37-63-62-63-56s-24 34-54 63c-51 49-96 116-96 144 0 7-4 13-9 13-6 0-6-11-1-27 22-77 44-112 105-166l65-58 37 40c34 39 63 53 63 31 0-18 16-11 61 28 24 20 53 42 64 48 31 17 65 74 65 109 0 24 9 42 36 69 24 24 34 43 32 58-2 13 5 32 15 43 11 12 17 34 16 60 0 22 2 57 6 79 8 46-10 42-20-4-4-16-21-41-38-56-27-23-37-25-81-20-42 5-48 4-31-6 32-19 111-15 136 8l22 19-7-25c-11-36-52-70-85-70-16 0-47 7-70 15s-39 10-36 5c10-17 94-42 125-38 38 6 40-13 5-47-16-17-35-25-59-25-41 0-215 73-233 97-35 47-3 105 128 233 53 51 88 100 73 100-4 0-13-8-20-17-10-15-15-16-25-5-19 18-54 15-99-8-51-26-109-25-172 2-42 18-55 20-81 10s-32-9-43 6c-7 9-14 13-14 9zm145-56c53-20 112-20 162 1 15 6 44 13 63 15l35 4-45-40c-25-22-53-48-63-57-10-8-16-22-13-30 6-15-9-20-18-5-10 16 6 41 43 66 37 26 30 33-12 14-31-14-51-51-44-81 3-13 0-31-8-42-14-18-16-18-33-3-13 12-17 27-14 51 3 27-2 40-22 60-14 14-35 26-48 26-21 0-21-1 7-18 17-11 36-26 44-35 14-18 9-47-8-47-6 0-8 7-4 15 6 16-22 55-39 55-12 0-68 52-68 62 0 13 33 9 85-11z"/>
  <path d="m1995 1230c4-11 0-33-8-50-9-17-11-30-5-32s13-40 18-83c4-44 8-71 9-60s4 38 7 59c8 52-5 186-18 186-5 0-6-9-3-20z"/>
  <path d="m1906 953c-5-24-11-43-15-43-3 0-7-14-8-31s-11-49-21-72c-16-35-52-126-86-222-17-47 27 22 65 100 44 93 82 230 77 277-4 33-4 33-12-9z"/>
  <path d="m1130 962c0-71 51-227 108-330 33-61 58-83 29-25-8 15-26 64-41 107-14 44-30 84-35 90s-17 45-26 86c-18 77-35 112-35 72z"/>
  <path d="m1210 806c0-12 75-178 106-233 55-98 147-216 193-246 39-26 46-27 72-16 17 6 48 25 69 40 22 16 44 29 49 29 21 0 108 117 136 183 19 45 5 50-17 5-24-51-142-173-210-217-34-22-63-39-65-37-1 1 19 25 45 52 64 67 136 179 193 299 87 185 75 199-17 20-71-139-125-224-188-299l-50-59-39 44c-65 74-132 179-196 306-51 102-81 150-81 129z"/>
  <path d="m1212 573c37-87 132-203 167-203 5 0 14-6 18-12 11-18 91-60 105-56 6 2-20 25-59 51-77 51-170 145-206 208-25 45-42 53-25 12z"/>
  <path d="m2120 1823c0-5 11-20 24-32s32-38 42-57c10-18 22-34 27-34 4 0 3 9-3 21-9 17-8 23 5 33 16 11 14 14-16 26-19 7-44 22-56 33-13 11-23 16-23 10z"/>
  <path d="m2290 1581c0-12-4-19-10-16-5 3-2-11 6-32 9-21 22-65 29-98l13-60 1 64c1 62-14 136-31 156-4 5-8-1-8-14z"/>
  <path d="m1859 2581c-33-34-40-92-13-122 14-16 13-20-20-51-35-32-36-34-25-71 6-22 12-37 15-35 2 2-1 20-6 38-8 29-7 37 12 57 24 25 44 30 51 11 2-7 2-3 0 10-2 16 1 22 15 22 19 0 62 39 62 55 0 5-7 0-16-11-15-19-16-19-9 1 16 43 17 66 5 80-21 26-49 18-67-20-13-28-14-39-4-61 9-20 17-25 36-22 13 3 22 1 19-3-8-13-48-11-62 3-28 28-1 128 34 128 8 0 14 5 14 10 0 16-10 12-41-19zm47-77c-3-8-10-14-16-14-14 0-13 43 3 59 10 10 13 8 15-9 2-12 1-28-2-36z"/>
  <path d="m1168 2590c46-20 61-111 22-135-20-12-59 5-74 33-9 15-15 21-16 14 0-20 47-62 70-62 18 0 19-3 9-21-9-17-8-20 2-14 9 6 11 0 6-23-5-25-2-34 16-47 21-14 22-14 30 10 7 20 5 31-9 48-19 21-19 21 0 7 10-8 22-23 26-35 8-17 9-17 9-2 1 10-15 32-34 49-30 26-33 32-20 42 8 6 17 25 21 41 7 36-31 98-61 102-16 2-16 1 3-7zm37-170c3-5 1-10-4-10-6 0-11 5-11 10 0 6 2 10 4 10 3 0 8-4 11-10z"/>
  <path d="m1120 2560c-19-35 14-100 50-100 32 0 41 60 14 98-19 28-50 28-64 2zm48-44c3-20 0-27-10-24-7 3-14 17-16 32-3 20 0 27 10 24 7-3 14-17 16-32z"/>
  <path d="m1827 2393c-16-19-13-73 5-73 5 0 6-5 2-11-4-7 7-1 25 12s31 31 30 43c0 21 0 21-9 1-4-12-16-27-26-35-18-14-18-14-1 6 12 15 16 30 11 48-7 31-15 32-37 9z"/>
 </g>
</svg>
