<?xml version="1.0" encoding="UTF-8" standalone="no"?>
<svg
   xmlns:dc="http://purl.org/dc/elements/1.1/"
   xmlns:cc="http://creativecommons.org/ns#"
   xmlns:rdf="http://www.w3.org/1999/02/22-rdf-syntax-ns#"
   xmlns:svg="http://www.w3.org/2000/svg"
   xmlns="http://www.w3.org/2000/svg"
   xmlns:sodipodi="http://sodipodi.sourceforge.net/DTD/sodipodi-0.dtd"
   xmlns:inkscape="http://www.inkscape.org/namespaces/inkscape"
   width="194"
   height="194"
   version="1.1"
   id="svg6"
   sodipodi:docname="soccer_ball.svg"
   inkscape:version="1.0.2-2 (e86c870879, 2021-01-15)">
  <metadata
     id="metadata12">
    <rdf:RDF>
      <cc:Work
         rdf:about="">
        <dc:format>image/svg+xml</dc:format>
        <dc:type
           rdf:resource="http://purl.org/dc/dcmitype/StillImage" />
      </cc:Work>
    </rdf:RDF>
  </metadata>
  <defs
     id="defs10" />
  <sodipodi:namedview
     pagecolor="#ffffff"
     bordercolor="#666666"
     borderopacity="1"
     objecttolerance="10"
     gridtolerance="10"
     guidetolerance="10"
     inkscape:pageopacity="0"
     inkscape:pageshadow="2"
     inkscape:window-width="1920"
     inkscape:window-height="1017"
     id="namedview8"
     showgrid="false"
     inkscape:zoom="1.5490741"
     inkscape:cx="41.585724"
     inkscape:cy="198.28045"
     inkscape:window-x="1912"
     inkscape:window-y="-8"
     inkscape:window-maximized="1"
     inkscape:current-layer="svg6" />
  <circle
     fill="#000000"
     cx="97"
     cy="97"
     r="87.300003"
     id="circle2"
     style="stroke-width:0.9" />
  <path
     fill="#ffffff"
     d="M 94.3,17.99 A 79.2,79.2 0 0 0 44.8,37.61 H 69.1 L 94.3,24.65 Z m 5.4,0 v 6.66 l 25.2,12.96 h 24.3 A 79.2,79.2 0 0 0 99.7,17.99 Z M 39.22,43.01 a 79.2,79.2 0 0 0 -18,30.78 l 14.4,24.84 20.7,-3.24 18.9,-32.58 -7.56,-19.8 z m 87.12,0 -7.56,19.8 18.9,32.58 20.7,3.24 14.22,-24.66 A 79.2,79.2 0 0 0 154.78,43.01 Z m -45,23.4 -18.18,31.68 16.02,27.72 h 35.64 L 130.84,98.09 112.66,66.41 Z M 19.42,81.35 a 79.2,79.2 0 0 0 -1.62,15.66 79.2,79.2 0 0 0 9.36,37.26 l 6.66,-3.96 -1.26,-26.1 z m 155.16,0.18 -13.14,22.68 -1.26,26.1 6.66,3.96 a 79.2,79.2 0 0 0 9.36,-37.26 79.2,79.2 0 0 0 -1.62,-15.48 z m -95.4,51.48 -13.86,17.1 13.86,23.94 a 79.2,79.2 0 0 0 17.82,2.16 79.2,79.2 0 0 0 17.82,-2.16 l 13.86,-23.94 -13.86,-17.1 z m -43.02,2.34 -6.3,3.6 a 79.2,79.2 0 0 0 41.76,33.12 l -12.6,-22.14 z m 121.68,0 -22.86,14.58 -12.6,21.96 a 79.2,79.2 0 0 0 41.76,-32.94 z"
     id="path4"
     style="stroke-width:0.9" />
</svg>
