<?xml version="1.0" encoding="UTF-8" standalone="no"?>
<svg
   xmlns:dc="http://purl.org/dc/elements/1.1/"
   xmlns:cc="http://creativecommons.org/ns#"
   xmlns:rdf="http://www.w3.org/1999/02/22-rdf-syntax-ns#"
   xmlns:svg="http://www.w3.org/2000/svg"
   xmlns="http://www.w3.org/2000/svg"
   xmlns:sodipodi="http://sodipodi.sourceforge.net/DTD/sodipodi-0.dtd"
   xmlns:inkscape="http://www.inkscape.org/namespaces/inkscape"
   fill="#FFF"
   viewBox="0 0 80 80"
   width="50px"
   height="50px"
   version="1.1"
   id="svg4"
   sodipodi:docname="fb.svg"
   inkscape:version="1.0.2-2 (e86c870879, 2021-01-15)">
  <metadata
     id="metadata10">
    <rdf:RDF>
      <cc:Work
         rdf:about="">
        <dc:format>image/svg+xml</dc:format>
        <dc:type
           rdf:resource="http://purl.org/dc/dcmitype/StillImage" />
      </cc:Work>
    </rdf:RDF>
  </metadata>
  <defs
     id="defs8" />
  <sodipodi:namedview
     pagecolor="#ffffff"
     bordercolor="#666666"
     borderopacity="1"
     objecttolerance="10"
     gridtolerance="10"
     guidetolerance="10"
     inkscape:pageopacity="0"
     inkscape:pageshadow="2"
     inkscape:window-width="1919"
     inkscape:window-height="1017"
     id="namedview6"
     showgrid="false"
     inkscape:zoom="17"
     inkscape:cx="25"
     inkscape:cy="25"
     inkscape:window-x="1912"
     inkscape:window-y="-8"
     inkscape:window-maximized="1"
     inkscape:current-layer="svg4" />
  <path
     d="m 43.411213,15.929412 c -3.27025,0 -6.095226,0.996939 -8.078125,2.966797 -1.982899,1.969858 -3.0625,4.857028 -3.0625,8.400391 v 4.632812 h -6 a 1.0001,1.0001 0 0 0 -1,1 v 8 a 1.0001,1.0001 0 0 0 1,1 h 6 v 19 a 1.0001,1.0001 0 0 0 1,1 h 8 a 1.0001,1.0001 0 0 0 1,-1 v -19 h 7 a 1.0001,1.0001 0 0 0 0.992188,-0.875 l 1,-8 a 1.0001,1.0001 0 0 0 -0.992188,-1.125 h -8 v -4 c 0,-1.116666 0.883334,-2 2,-2 h 6 a 1.0001,1.0001 0 0 0 1,-1 v -7.654297 a 1.0001,1.0001 0 0 0 -0.869141,-0.990234 c -0.883674,-0.117248 -4.073685,-0.355469 -6.990234,-0.355469 z m 0,2 c 2.437852,0 4.79448,0.195047 5.859375,0.294922 v 5.705078 h -5 c -2.197334,0 -4,1.802666 -4,4 v 5 a 1.0001,1.0001 0 0 0 1,1 h 7.867188 l -0.75,6 h -7.117188 a 1.0001,1.0001 0 0 0 -1,1 v 19 h -6 v -19 a 1.0001,1.0001 0 0 0 -1,-1 h -6 v -6 h 6 a 1.0001,1.0001 0 0 0 1,-1 V 27.2966 c 0,-3.144638 0.920305,-5.440281 2.472656,-6.982423 1.552351,-1.542142 3.797219,-2.384765 6.667969,-2.384765 z"
     id="path2" />
</svg>
